<svg xmlns="http://www.w3.org/2000/svg" xmlns:xlink="http://www.w3.org/1999/xlink" width="198.672" height="165.656" viewBox="0 0 198.672 165.656">
  <defs>
    <linearGradient id="linear-gradient" x1="-2.15" y1="0.643" x2="-2.159" gradientUnits="objectBoundingBox">
      <stop offset="0" stop-color="#f8faff" stop-opacity="0.18"/>
      <stop offset="1" stop-color="#2c99c6"/>
    </linearGradient>
  </defs>
  <g id="Group_2217" data-name="Group 2217" transform="translate(-47 -219.665)">
    <g id="Group_2216" data-name="Group 2216" transform="translate(47 219.665)">
      <ellipse id="XMLID_5_" cx="99.336" cy="44.691" rx="99.336" ry="44.691" transform="translate(0 76.274)" opacity="0.26" fill="url(#linear-gradient)"/>
      <path id="XMLID_4_" d="M109.711,145.339s-9.955-16.1-12.426-45.114c-.282-3.53-.494-7.2-.494-11.155-.424-36.007,4.871-59.87,33.183-59.87s31.135,16.591,31.135,35.583c0,18.568-6.213,54.575,8.472,77.379a3.6,3.6,0,0,1-.212,4.377c-1.624,1.694-5.083,2.33-12.073-4.942,0,0-4.73-8.049-5.789-5.436-2.4,6,3.671,8.825,2.047,12.426-1.412,2.965-10.59,3.036-14.967-8.613-4.73-12.567-5.86,1.483-3.812,6.284,1.553,3.671-5.436,7.625-10.731-5.083-4.024-9.743-10.661-4.942-8.613-.071,3.106,7.413,1.2,13.344-3.248,8.966" transform="translate(-34.873 -28.963)" fill="#a1b9c4"/>
      <path id="XMLID_3_" d="M134.6,65.117c-1.271-1.412-5.648.494-1.836,6.848s13.061,14.261,16.521,8.825C155.5,71.259,140.954,72.177,134.6,65.117Z" transform="translate(-45.007 -39.393)" fill="#f8faff"/>
      <path id="XMLID_2_" d="M118.891,66.683c.847-.918,3.742.353,1.2,4.589s-8.684,9.531-11.014,5.86C104.912,70.778,114.655,71.413,118.891,66.683Z" transform="translate(-38.194 -39.9)" fill="#f8faff"/>
      <ellipse id="XMLID_1_" cx="6.001" cy="8.402" rx="6.001" ry="8.402" transform="translate(80.133 40.903)" fill="#f8faff"/>
      <g id="Group_2214" data-name="Group 2214" transform="translate(142.614 62.451)">
        <path id="Path_5624" data-name="Path 5624" d="M173.59,26.461h-9.415V4.707a4.707,4.707,0,1,1,9.415,0V26.461Z" transform="translate(-158.213 0)" fill="#bcd9e6"/>
        <path id="Path_5634" data-name="Path 5634" d="M9.415,26.461H0V4.707a4.707,4.707,0,1,1,9.415,0V26.461Z" transform="translate(15.377 31.477) rotate(180)" fill="#bcd9e6"/>
        <path id="Path_5625" data-name="Path 5625" d="M221.757,26.461h-3.675V1.837a1.837,1.837,0,0,1,3.675,0Z" transform="translate(-209.25 0)" fill="#abc9d6"/>
        <path id="Path_5633" data-name="Path 5633" d="M3.675,26.461H0V1.837a1.837,1.837,0,0,1,3.675,0Z" transform="translate(12.507 31.477) rotate(180)" fill="#abc9d6"/>
        <path id="Path_5626" data-name="Path 5626" d="M340.7,106.711h.94a1.7,1.7,0,0,0,1.7-1.7v-3.729a1.619,1.619,0,0,1,1.552-1.63,1.6,1.6,0,0,1,1.642,1.6v4.544a4.112,4.112,0,0,1-4.112,4.112h-1.688Z" transform="translate(-325.335 -94.347)" fill="#bcd9e6"/>
        <path id="Path_5627" data-name="Path 5627" d="M347.092,99.654a1.554,1.554,0,0,0-.749.216,1.6,1.6,0,0,1,.794,1.381v4.544a4.112,4.112,0,0,1-4.112,4.112h1.6a4.112,4.112,0,0,0,4.112-4.112v-4.544A1.6,1.6,0,0,0,347.092,99.654Z" transform="translate(-327.54 -94.348)" fill="#abc9d6"/>
        <path id="Path_5628" data-name="Path 5628" d="M60.449,178.965h-.94a1.7,1.7,0,0,1-1.7-1.7v-5.859a1.619,1.619,0,0,0-1.552-1.63,1.6,1.6,0,0,0-1.642,1.6v6.674a4.112,4.112,0,0,0,4.112,4.112h1.688Z" transform="translate(-54.487 -160.737)" fill="#bcd9e6"/>
        <path id="Path_5629" data-name="Path 5629" d="M73.84,177.266v-5.859a1.619,1.619,0,0,0-1.552-1.63,1.591,1.591,0,0,0-.741.159,1.641,1.641,0,0,1,.909,1.471v5.859a1.7,1.7,0,0,0,1.7,1.7h.94S73.84,178.2,73.84,177.266Z" transform="translate(-70.517 -160.737)" fill="#abc9d6"/>
        <path id="Path_5631" data-name="Path 5631" d="M55.234,114.052a.4.4,0,0,0-.4.4v.326a.924.924,0,0,1-.525.832v-2.128a.4.4,0,0,0-.8,0v2.128a.924.924,0,0,1-.525-.832v-.326a.4.4,0,1,0-.8,0v.326a1.723,1.723,0,1,0,3.445,0v-.326A.4.4,0,0,0,55.234,114.052Z" transform="translate(-52.188 -107.062)" fill="#abc9d6"/>
        <path id="Path_5632" data-name="Path 5632" d="M390.651,43.929a.4.4,0,0,0-.4.4v.327a.924.924,0,0,1-.525.832V43.359a.4.4,0,1,0-.8,0v2.128a.924.924,0,0,1-.525-.832v-.327a.4.4,0,0,0-.8,0v.327a1.723,1.723,0,1,0,3.445,0v-.327A.4.4,0,0,0,390.651,43.929Z" transform="translate(-369.747 -40.673)" fill="#abc9d6"/>
      </g>
      <g id="Group_2215" data-name="Group 2215" transform="translate(31.77 61.745)">
        <path id="Path_5624-2" data-name="Path 5624" d="M173.59,26.461h-9.415V4.707a4.707,4.707,0,1,1,9.415,0V26.461Z" transform="translate(-158.213 0)" fill="#bcd9e6"/>
        <path id="Path_5634-2" data-name="Path 5634" d="M9.415,26.461H0V4.707a4.707,4.707,0,1,1,9.415,0V26.461Z" transform="translate(15.377 31.477) rotate(180)" fill="#bcd9e6"/>
        <path id="Path_5625-2" data-name="Path 5625" d="M221.757,26.461h-3.675V1.837a1.837,1.837,0,0,1,3.675,0Z" transform="translate(-209.25 0)" fill="#abc9d6"/>
        <path id="Path_5633-2" data-name="Path 5633" d="M3.675,26.461H0V1.837a1.837,1.837,0,0,1,3.675,0Z" transform="translate(12.507 31.477) rotate(180)" fill="#abc9d6"/>
        <path id="Path_5626-2" data-name="Path 5626" d="M340.7,106.711h.94a1.7,1.7,0,0,0,1.7-1.7v-3.729a1.619,1.619,0,0,1,1.552-1.63,1.6,1.6,0,0,1,1.642,1.6v4.544a4.112,4.112,0,0,1-4.112,4.112h-1.688Z" transform="translate(-325.335 -94.347)" fill="#bcd9e6"/>
        <path id="Path_5627-2" data-name="Path 5627" d="M347.092,99.654a1.554,1.554,0,0,0-.749.216,1.6,1.6,0,0,1,.794,1.381v4.544a4.112,4.112,0,0,1-4.112,4.112h1.6a4.112,4.112,0,0,0,4.112-4.112v-4.544A1.6,1.6,0,0,0,347.092,99.654Z" transform="translate(-327.54 -94.348)" fill="#abc9d6"/>
        <path id="Path_5628-2" data-name="Path 5628" d="M60.449,178.965h-.94a1.7,1.7,0,0,1-1.7-1.7v-5.859a1.619,1.619,0,0,0-1.552-1.63,1.6,1.6,0,0,0-1.642,1.6v6.674a4.112,4.112,0,0,0,4.112,4.112h1.688Z" transform="translate(-54.487 -160.737)" fill="#bcd9e6"/>
        <path id="Path_5629-2" data-name="Path 5629" d="M73.84,177.266v-5.859a1.619,1.619,0,0,0-1.552-1.63,1.591,1.591,0,0,0-.741.159,1.641,1.641,0,0,1,.909,1.471v5.859a1.7,1.7,0,0,0,1.7,1.7h.94S73.84,178.2,73.84,177.266Z" transform="translate(-70.517 -160.737)" fill="#abc9d6"/>
        <path id="Path_5631-2" data-name="Path 5631" d="M55.234,114.052a.4.4,0,0,0-.4.4v.326a.924.924,0,0,1-.525.832v-2.128a.4.4,0,0,0-.8,0v2.128a.924.924,0,0,1-.525-.832v-.326a.4.4,0,1,0-.8,0v.326a1.723,1.723,0,1,0,3.445,0v-.326A.4.4,0,0,0,55.234,114.052Z" transform="translate(-52.188 -107.062)" fill="#abc9d6"/>
        <path id="Path_5632-2" data-name="Path 5632" d="M390.651,43.929a.4.4,0,0,0-.4.4v.327a.924.924,0,0,1-.525.832V43.359a.4.4,0,1,0-.8,0v2.128a.924.924,0,0,1-.525-.832v-.327a.4.4,0,0,0-.8,0v.327a1.723,1.723,0,1,0,3.445,0v-.327A.4.4,0,0,0,390.651,43.929Z" transform="translate(-369.747 -40.673)" fill="#abc9d6"/>
      </g>
      <path id="Path_5635" data-name="Path 5635" d="M15120.449,395.97s16.89-2.612,26.292,5.485,11.229,16.454,9.925,31.079-2.611,30.035,0,43.616,14.625,35.519,14.625,35.519,2.783-1.445,1.478-3.584-7.491-14.265-8.917-25.321-1.665-36.5,0-52.662-4.743-25.673-7.186-28.647-13.5-10.82-34.659-6.54" transform="translate(-15037.529 -393.665)" fill="#a1b9c4"/>
    </g>
  </g>
</svg>
