<svg xmlns="http://www.w3.org/2000/svg" width="14.642" height="15.024" viewBox="0 0 14.642 15.024">
  <g id="switch" transform="translate(25.642 -8) rotate(90)">
    <path id="Path_5943" data-name="Path 5943" d="M8.626,18.443H20.887l-1.122,1.122a.626.626,0,1,0,.885.885l2.191-2.191a.626.626,0,0,0,0-.885L20.65,15.184a.626.626,0,0,0-.885.885l1.122,1.122H8.626a.626.626,0,1,0,0,1.252Z" transform="translate(0 -4)" fill="#2c99c6"/>
    <path id="Path_5944" data-name="Path 5944" d="M22.4,33.191H10.137l1.122-1.122a.626.626,0,1,0-.885-.885L8.184,33.375a.626.626,0,0,0,0,.885l2.191,2.191a.626.626,0,1,0,.885-.885l-1.122-1.122H22.4a.626.626,0,1,0,0-1.252Z" transform="translate(0 -10.992)" fill="#2c99c6"/>
  </g>
</svg>
