<svg id="Group_2545" data-name="Group 2545" xmlns="http://www.w3.org/2000/svg" width="24.656" height="24.655" viewBox="0 0 24.656 24.655">
  <g id="ball" transform="translate(0 0)">
    <path id="Path_5869" data-name="Path 5869" d="M60.932,16.64v2.281L56.822,22l-3.061-.514A11.75,11.75,0,0,1,60.932,16.64Z" transform="translate(-51.172 -15.84)" fill="#f5fcff"/>
    <path id="Path_5870" data-name="Path 5870" d="M46.654,12.375a.544.544,0,0,1-.085-.007l-3.061-.514a.514.514,0,0,1-.339-.8A12.225,12.225,0,0,1,50.654,6a.514.514,0,0,1,.623.5V8.779a.514.514,0,0,1-.205.411l-4.109,3.082A.514.514,0,0,1,46.654,12.375Zm-2.15-1.4,2.019.339,3.727-2.8V7.155A11.178,11.178,0,0,0,44.5,10.98Z" transform="translate(-41.004 -5.698)" fill="#455a64"/>
    <path id="Path_5871" data-name="Path 5871" d="M211.4,12.4v2.373l-5.137.514-3.6-2.055V10.954A11.754,11.754,0,0,1,211.4,12.4Z" transform="translate(-192.908 -10.154)" fill="#f5fcff"/>
    <path id="Path_5872" data-name="Path 5872" d="M196.109,5.677a.514.514,0,0,1-.255-.068l-3.6-2.055A.514.514,0,0,1,192,3.109V.828a.514.514,0,0,1,.4-.5,12.29,12.29,0,0,1,9.113,1.512.514.514,0,0,1,.244.438V4.65a.514.514,0,0,1-.462.514l-5.137.514h-.051Zm-3.082-2.866,3.194,1.826,4.511-.452V2.569a11.266,11.266,0,0,0-7.7-1.322Z" transform="translate(-182.754 -0.029)" fill="#455a64"/>
    <path id="Path_5873" data-name="Path 5873" d="M326.889,373.333a11.832,11.832,0,0,1-7.315,5.763l.534-3.2,4.109-2.568Z" transform="translate(-304.185 -355.356)" fill="#f5fcff"/>
    <path id="Path_5874" data-name="Path 5874" d="M309.423,369.458a.514.514,0,0,1-.514-.514.508.508,0,0,1,.007-.085l.534-3.2a.514.514,0,0,1,.234-.35l4.109-2.568a.514.514,0,0,1,.272-.078h2.671a.514.514,0,0,1,.451.76,12.381,12.381,0,0,1-7.633,6.013A.5.5,0,0,1,309.423,369.458Zm1-3.4-.36,2.147a11.37,11.37,0,0,0,5.766-4.515h-1.618Z" transform="translate(-294.033 -345.204)" fill="#455a64"/>
    <path id="Path_5875" data-name="Path 5875" d="M409.956,184.929a11.745,11.745,0,0,1-1.438,5.65h-2.671l-.514-5.137,1.541-4.109,2.681.534A12.017,12.017,0,0,1,409.956,184.929Z" transform="translate(-385.814 -172.602)" fill="#f5fcff"/>
    <path id="Path_5876" data-name="Path 5876" d="M398.311,180.925H395.64a.514.514,0,0,1-.514-.462l-.514-5.137a.513.513,0,0,1,.03-.232l1.541-4.109a.514.514,0,0,1,.587-.323l2.681.534a.514.514,0,0,1,.4.373,12.54,12.54,0,0,1,.415,3.192,12.339,12.339,0,0,1-1.5,5.9A.513.513,0,0,1,398.311,180.925Zm-2.206-1.027H398a11.315,11.315,0,0,0,1.233-5.137,11.487,11.487,0,0,0-.308-2.622l-1.933-.385-1.346,3.588Z" transform="translate(-375.608 -162.434)" fill="#455a64"/>
    <path id="Path_5877" data-name="Path 5877" d="M17.345,121.442l-2.568,4.109-3.924.565a11.814,11.814,0,0,1-.185-2.106,11.666,11.666,0,0,1,2.075-6.678l3.061.514Z" transform="translate(-10.154 -111.684)" fill="#f5fcff"/>
    <path id="Path_5878" data-name="Path 5878" d="M.706,116.5a.514.514,0,0,1-.5-.422,12.356,12.356,0,0,1,1.972-9.168.519.519,0,0,1,.5-.214l3.061.514a.514.514,0,0,1,.387.308l1.541,3.6a.514.514,0,0,1-.037.475l-2.568,4.109a.514.514,0,0,1-.363.236l-3.924.565A.527.527,0,0,1,.706,116.5Zm2.133-8.732a11.174,11.174,0,0,0-1.8,6.113,11.529,11.529,0,0,0,.1,1.526l3.185-.459,2.3-3.679L5.3,108.172Z" transform="translate(-0.008 -101.55)" fill="#455a64"/>
    <path id="Path_5879" data-name="Path 5879" d="M123.952,375.9l-.534,3.2a12.019,12.019,0,0,1-3.061.4,11.706,11.706,0,0,1-6.863-2.2v-.01l1.726-3.442,5.65-.514Z" transform="translate(-108.029 -355.356)" fill="#f5fcff"/>
    <path id="Path_5880" data-name="Path 5880" d="M110.2,369.856a12.205,12.205,0,0,1-7.163-2.3.514.514,0,0,1-.214-.417.552.552,0,0,1,.054-.24l1.726-3.442a.514.514,0,0,1,.411-.281l5.65-.514a.514.514,0,0,1,.376.117l3.082,2.568a.514.514,0,0,1,.178.48l-.534,3.2a.514.514,0,0,1-.376.411A12.537,12.537,0,0,1,110.2,369.856ZM104,366.972a11.3,11.3,0,0,0,8.818,1.548l.429-2.568-2.693-2.244-5.154.468Z" transform="translate(-97.877 -345.201)" fill="#455a64"/>
    <path id="Path_5881" data-name="Path 5881" d="M244.427,100.109l-1.541,4.109-5.137.514-3.082-4.109,2.055-4.109L241.858,96Z" transform="translate(-223.367 -91.378)" fill="#f5fcff"/>
    <path id="Path_5882" data-name="Path 5882" d="M227.6,95.1a.514.514,0,0,1-.411-.205l-3.082-4.109a.514.514,0,0,1-.048-.537l2.055-4.109a.514.514,0,0,1,.411-.281l5.137-.514a.514.514,0,0,1,.487.238l2.568,4.109a.514.514,0,0,1,.045.453l-1.541,4.109a.514.514,0,0,1-.432.333l-5.137.514Zm-2.481-4.677,2.718,3.623,4.531-.453,1.336-3.573-2.26-3.623-4.538.454Z" transform="translate(-213.22 -81.235)" fill="#455a64"/>
    <path id="Path_5883" data-name="Path 5883" d="M105.761,196.109l-1.541,4.623-5.65.514L96,196.623l2.568-4.109,4.109-.514Z" transform="translate(-91.378 -182.755)" fill="#f5fcff"/>
    <g id="Group_2541" data-name="Group 2541" transform="translate(0.185 1.745)">
      <path id="Path_5884" data-name="Path 5884" d="M88.416,191.535a.514.514,0,0,1-.449-.264L85.4,186.648a.514.514,0,0,1,.013-.522l2.568-4.109a.514.514,0,0,1,.372-.241l4.109-.514a.514.514,0,0,1,.475.205l3.082,4.109a.514.514,0,0,1,.076.471l-1.541,4.623a.514.514,0,0,1-.441.349l-5.65.514Zm-1.972-5.121,2.26,4.066,4.983-.453,1.35-4.049-2.743-3.656-3.569.447Z" transform="translate(-81.409 -174.276)" fill="#455a64"/>
      <path id="Path_5885" data-name="Path 5885" d="M115.113,55.457l-3.6-2.055a.514.514,0,0,0-.563.035l-4.109,3.082a.514.514,0,0,0-.164.616l1.541,3.6a.514.514,0,0,0,.473.308.541.541,0,0,0,.064,0l4.109-.514a.514.514,0,0,0,.4-.279l2.055-4.109A.514.514,0,0,0,115.113,55.457Z" transform="translate(-101.688 -52.513)" fill="#455a64"/>
      <path id="Path_5886" data-name="Path 5886" d="M263.147,255.944l-5.137.514a.514.514,0,0,0-.436.348l-1.541,4.623a.514.514,0,0,0,.158.557l3.082,2.568a.514.514,0,0,0,.6.041l4.109-2.568a.514.514,0,0,0,.241-.484l-.514-5.137a.514.514,0,0,0-.56-.463Z" transform="translate(-243.864 -245.362)" fill="#455a64"/>
      <path id="Path_5887" data-name="Path 5887" d="M8.73,277.5a.514.514,0,0,0-.522-.264l-3.924.565a.514.514,0,0,0-.435.582l0,.017a12.212,12.212,0,0,0,4.974,7.832.514.514,0,0,0,.757-.188l1.726-3.442a.514.514,0,0,0-.01-.48Z" transform="translate(-3.843 -265.628)" fill="#455a64"/>
      <path id="Path_5888" data-name="Path 5888" d="M379.593,43.655a12.4,12.4,0,0,0-5.479-7.313.514.514,0,0,0-.781.439v2.363a.514.514,0,0,0,.078.272l2.568,4.109a.514.514,0,0,0,.335.231l2.681.534a.485.485,0,0,0,.1.01.514.514,0,0,0,.5-.646Z" transform="translate(-355.54 -36.267)" fill="#455a64"/>
    </g>
  </g>
</svg>
