<svg xmlns="http://www.w3.org/2000/svg" width="17.138" height="15.063" viewBox="0 0 17.138 15.063">
  <g id="calendar_1_" data-name="calendar (1)" transform="translate(0 -31)">
    <path id="Path_6009" data-name="Path 6009" d="M.5,44.054h2.51v1.506a.5.5,0,0,0,.5.5H16.636a.5.5,0,0,0,.5-.5V32.506a.5.5,0,0,0-.5-.5h-2.51v-.5a.5.5,0,1,0-1,0V32H10.577v-.5a.5.5,0,1,0-1,0V32H7.062v-.5a.5.5,0,1,0-1,0V32H3.514a.5.5,0,0,0-.5.5v3.013c0,3.7-1.538,6.547-2.832,7.648a.5.5,0,0,0,.321.888Zm15.632,1H4.016v-1h9.607a.5.5,0,0,0,.321-.116,9.267,9.267,0,0,0,2.189-3.233ZM4.016,33.008H6.058v.5a.5.5,0,1,0,1,0v-.5h2.51v.5a.5.5,0,1,0,1,0v-.5h2.544v.5a.5.5,0,1,0,1,0v-.5h2.008v2.008H4.016Zm-.009,3.012H16.125a10.523,10.523,0,0,1-2.7,7.03H1.644A12.083,12.083,0,0,0,4.008,36.021Z" transform="translate(0)" fill="#a0d7ee"/>
  </g>
</svg>
