<svg xmlns="http://www.w3.org/2000/svg" width="19.33" height="24.604" viewBox="0 0 19.33 24.604">
  <g id="clipboard" transform="translate(-47.045 0)">
    <g id="Group_3979" data-name="Group 3979" transform="translate(47.748 0.472)">
      <path id="Path_5930" data-name="Path 5930" d="M77.508,70.247V87.029a1.757,1.757,0,0,1-1.757,1.757H61.341a1.757,1.757,0,0,1-1.757-1.757V70.247a1.757,1.757,0,0,1,1.757-1.757h2.87v2.05h8.64V68.49h2.9A1.757,1.757,0,0,1,77.508,70.247Z" transform="translate(-59.584 -65.122)" fill="#2c99c6"/>
      <path id="Path_5931" data-name="Path 5931" d="M150.771,11.776v2.05h-8.64V10.165h2.138a2.226,2.226,0,0,1,2.167-1.757,2.2,2.2,0,0,1,2.167,1.757h2.167Z" transform="translate(-137.504 -8.408)" fill="#99d86f"/>
    </g>
    <g id="Group_3980" data-name="Group 3980" transform="translate(47.045 0)">
      <path id="Path_5932" data-name="Path 5932" d="M63.915,3.225H61.689v-1c0-.322-.351-.469-.674-.469H59.287A2.636,2.636,0,0,0,56.681,0,2.665,2.665,0,0,0,54.074,1.76h-1.7c-.322,0-.644.146-.644.469v1H49.505A2.489,2.489,0,0,0,47.045,5.6V22.379a2.356,2.356,0,0,0,2.46,2.226H63.915a2.356,2.356,0,0,0,2.46-2.226V5.6A2.49,2.49,0,0,0,63.915,3.225ZM52.9,2.932h1.611A.615.615,0,0,0,55.07,2.4a1.7,1.7,0,0,1,1.611-1.318A1.669,1.669,0,0,1,58.262,2.4a.644.644,0,0,0,.586.527h1.669V5.275H52.9ZM65.2,22.379a1.188,1.188,0,0,1-1.289,1.054H49.505a1.188,1.188,0,0,1-1.289-1.054V5.6a1.318,1.318,0,0,1,1.289-1.2h2.226V5.89a.615.615,0,0,0,.644.556h8.64a.644.644,0,0,0,.674-.556V4.4h2.226A1.318,1.318,0,0,1,65.2,5.6V22.379Z" transform="translate(-47.045 0)" fill="#066c97"/>
      <path id="Path_5933" data-name="Path 5933" d="M101.171,233.672a.527.527,0,0,1-.41-.176l-1.2-1.23a.615.615,0,0,1,0-.849.586.586,0,0,1,.82.029l.791.82,1.874-1.787a.586.586,0,0,1,.82.029.556.556,0,0,1,.034.786c-.011.012-.022.023-.034.034l-2.284,2.167A.586.586,0,0,1,101.171,233.672Z" transform="translate(-96.455 -217.415)" fill="#fff"/>
      <path id="Path_5934" data-name="Path 5934" d="M205.877,257.22h-6.736a.586.586,0,1,1,0-1.172h6.736a.586.586,0,0,1,0,1.172Z" transform="translate(-190.062 -241.695)" fill="#fff"/>
      <path id="Path_5935" data-name="Path 5935" d="M101.171,150.081a.527.527,0,0,1-.41-.176l-1.2-1.23a.615.615,0,0,1,0-.849.586.586,0,0,1,.82.029l.791.82,1.874-1.787a.586.586,0,0,1,.82.029.556.556,0,0,1,.034.786l-.034.034-2.284,2.167A.586.586,0,0,1,101.171,150.081Z" transform="translate(-96.455 -138.509)" fill="#fff"/>
      <path id="Path_5936" data-name="Path 5936" d="M205.877,173.63h-6.736a.586.586,0,1,1,0-1.172h6.736a.586.586,0,0,1,0,1.172Z" transform="translate(-190.062 -162.79)" fill="#fff"/>
      <path id="Path_5937" data-name="Path 5937" d="M101.171,317.264a.527.527,0,0,1-.41-.176l-1.2-1.23a.615.615,0,0,1,0-.849.586.586,0,0,1,.82.029l.791.82,1.874-1.787a.586.586,0,0,1,.82.029.556.556,0,0,1,.034.786c-.011.012-.022.023-.034.034l-2.284,2.167A.586.586,0,0,1,101.171,317.264Z" transform="translate(-96.455 -296.321)" fill="#fff"/>
      <path id="Path_5938" data-name="Path 5938" d="M205.877,340.813h-6.736a.586.586,0,1,1,0-1.172h6.736a.586.586,0,0,1,0,1.172Z" transform="translate(-190.062 -320.601)" fill="#fff"/>
    </g>
  </g>
</svg>
