<svg id="company" xmlns="http://www.w3.org/2000/svg" width="126.591" height="132.251" viewBox="0 0 126.591 132.251">
  <path id="Path_330" data-name="Path 330" d="M55.028,17.628,15.5,9.351V90.677H52.973a9.726,9.726,0,0,0,9.715-9.715V27.122A9.668,9.668,0,0,0,55.028,17.628ZM41.87,74.022H33.543a4.164,4.164,0,0,1,0-8.327H41.87a4.164,4.164,0,0,1,0,8.327Zm0-16.655H33.543a4.164,4.164,0,1,1,0-8.327H41.87a4.164,4.164,0,0,1,0,8.327Zm0-16.655H33.543a4.164,4.164,0,1,1,0-8.327H41.87a4.164,4.164,0,0,1,0,8.327Z" transform="translate(63.902 41.574)" fill="#97e161"/>
  <path id="Path_329" data-name="Path 329" d="M72.338,9.571,11.325.3A9.839,9.839,0,0,0,3.442,2.465,9.927,9.927,0,0,0,0,9.9V126.877a5.568,5.568,0,0,0,5.552,5.552H23.594V103.283a9.691,9.691,0,0,1,9.715-9.715H47.189a9.691,9.691,0,0,1,9.715,9.715v29.146H80.5V19.176A9.721,9.721,0,0,0,72.338,9.571Zm-41.8,71.5H22.206a4.164,4.164,0,1,1,0-8.327h8.327a4.164,4.164,0,1,1,0,8.327Zm0-16.655H22.206a4.164,4.164,0,0,1,0-8.327h8.327a4.164,4.164,0,1,1,0,8.327Zm0-16.655H22.206a4.164,4.164,0,1,1,0-8.327h8.327a4.164,4.164,0,1,1,0,8.327Zm0-16.655H22.206a4.164,4.164,0,1,1,0-8.327h8.327a4.164,4.164,0,1,1,0,8.327ZM58.292,81.076H49.965a4.164,4.164,0,1,1,0-8.327h8.327a4.164,4.164,0,1,1,0,8.327Zm0-16.655H49.965a4.164,4.164,0,0,1,0-8.327h8.327a4.164,4.164,0,0,1,0,8.327Zm0-16.655H49.965a4.164,4.164,0,1,1,0-8.327h8.327a4.164,4.164,0,0,1,0,8.327Zm0-16.655H49.965a4.164,4.164,0,1,1,0-8.327h8.327a4.164,4.164,0,0,1,0,8.327Z" transform="translate(0 -0.178)" fill="#65b927"/>
</svg>
