<svg id="Group_2543" data-name="Group 2543" xmlns="http://www.w3.org/2000/svg" width="36.257" height="27.27" viewBox="0 0 36.257 27.27">
  <ellipse id="Ellipse_4226" data-name="Ellipse 4226" cx="6.869" cy="6.869" rx="6.869" ry="6.869" transform="translate(0 13.461)" fill="#455a64"/>
  <path id="Path_5893" data-name="Path 5893" d="M103.869,260.409A6.877,6.877,0,0,1,97,267.278V253.54A6.877,6.877,0,0,1,103.869,260.409Z" transform="translate(-90.131 -240.079)" fill="#455a64"/>
  <ellipse id="Ellipse_4227" data-name="Ellipse 4227" cx="4.745" cy="4.745" rx="4.745" ry="4.745" transform="translate(2.125 15.585)" fill="#f0faff"/>
  <ellipse id="Ellipse_4228" data-name="Ellipse 4228" cx="6.94" cy="6.94" rx="6.94" ry="6.94" transform="translate(22.378 13.39)" fill="#455a64"/>
  <path id="Path_5895" data-name="Path 5895" d="M420.94,259.48a6.948,6.948,0,0,1-6.94,6.94V252.54A6.948,6.948,0,0,1,420.94,259.48Z" transform="translate(-384.682 -239.15)" fill="#455a64"/>
  <ellipse id="Ellipse_4229" data-name="Ellipse 4229" cx="4.815" cy="4.815" rx="4.815" ry="4.815" transform="translate(24.502 15.514)" fill="#f0faff"/>
  <path id="Path_5897" data-name="Path 5897" d="M259.283,64.159a1.062,1.062,0,0,0-1-.7h-3.271a1.062,1.062,0,1,0,0,2.124h2.527l.965,2.657,1.191.5,1.069-.5Z" transform="translate(-235.967 -63.46)" fill="#455a64"/>
  <path id="Path_5898" data-name="Path 5898" d="M45.176,172.191H47.3l.425-1.389-.425-1.368-.423.633H44.113l-2.3-4.6H39.437l1.623,3.248a11.107,11.107,0,0,0-9.129-.527,1.062,1.062,0,0,0,.763,1.983,8.984,8.984,0,0,1,7.3.385l-4.964,7.422a1.063,1.063,0,0,0,.883,1.653h11.26a1.049,1.049,0,0,0,.123-.007l.5-1.747-.5-1.437ZM37.9,177.5l4.321-6.462,3.231,6.462Z" transform="translate(-29.037 -158.241)" fill="#21d17f"/>
  <path id="Path_5899" data-name="Path 5899" d="M269.931,146.08l-5.518-15.186h-2.26l-4.286,6.418v2.758h.145a1.061,1.061,0,0,0,.883-.472l4.158-6.225.756,2.078-5.932,8.882-.009-.018V147.5a1.068,1.068,0,0,0,.76-.465l6.082-9.105,3.226,8.878a1.062,1.062,0,0,0,2-.725Z" transform="translate(-239.606 -126.119)" fill="#21d17f"/>
  <path id="Path_5900" data-name="Path 5900" d="M127.444,140.539h-5.1a1.062,1.062,0,1,0,0,2.124h5.1a1.062,1.062,0,0,0,0-2.124Z" transform="translate(-112.694 -135.081)" fill="#455a64"/>
</svg>
