<svg xmlns="http://www.w3.org/2000/svg" width="17.092" height="22.538" viewBox="0 0 17.092 22.538">
  <g id="XMLID_1487_" transform="translate(-61.857 0.001)">
    <path id="XMLID_1492_" d="M161.6,112.082h-6.9a1.057,1.057,0,0,1,0-2.113h6.9a1.057,1.057,0,0,1,0,2.113Z" transform="translate(-87.753 -105.128)" fill="#fff"/>
    <path id="XMLID_1491_" d="M82.054,173.112H78.047a6.088,6.088,0,0,1-5.133-9.362l3.688-5.781h6.9l3.688,5.781A6.088,6.088,0,0,1,82.054,173.112Z" transform="translate(-9.648 -151.015)" fill="#2c99c6"/>
    <path id="XMLID_1489_" d="M151.509,10.353a1.3,1.3,0,0,1,1.837,0l0,0a1.3,1.3,0,0,0,1.834,0l.013-.013a1.3,1.3,0,0,1,1.834,0l0,0a1.3,1.3,0,0,0,1.837,0,1.3,1.3,0,0,1,1.837,0l-1.149,4.018h-6.9Z" transform="translate(-85.706 -9.531)" fill="#2c99c6"/>
    <g id="XMLID_1153_" transform="translate(61.857 -0.001)">
      <path id="XMLID_1329_" d="M77.91,12.5,74.545,7.223a1.5,1.5,0,0,0-.139-2.715L75.425.943a.44.44,0,0,0-.112-.432,1.741,1.741,0,0,0-2.46,0,.853.853,0,0,1-.607.252A.854.854,0,0,1,71.638.51l0,0A1.743,1.743,0,0,0,69.18.5l-.013.013a.86.86,0,0,1-1.212,0l0,0a1.741,1.741,0,0,0-2.46,0,.44.44,0,0,0-.112.433L66.4,4.506a1.5,1.5,0,0,0-.141,2.716L62.9,12.5a6.528,6.528,0,0,0,5.5,10.039h4.007A6.528,6.528,0,0,0,77.91,12.5ZM67.329,1.133l0,0a1.743,1.743,0,0,0,2.456,0l.013-.013a.861.861,0,0,1,1.213,0l0,0a1.741,1.741,0,0,0,2.46,0A.86.86,0,0,1,74.5.988L73.52,4.4H67.287L66.309.988a.86.86,0,0,1,1.02.146ZM77.359,18.724a5.574,5.574,0,0,1-4.952,2.933H68.4a5.648,5.648,0,0,1-4.762-8.685L67.2,7.394h1.226a.44.44,0,0,0,0-.88H66.954a.616.616,0,0,1,0-1.233h6.9a.616.616,0,1,1,0,1.233H72.384a.44.44,0,1,0,0,.88H73.61l3.558,5.578a5.574,5.574,0,0,1,.191,5.753Z" transform="translate(-61.857 0.001)" fill="#066c97"/>
      <path id="XMLID_1341_" d="M211.447,241.871c-.11-.039-.223-.08-.336-.122v-2a1.808,1.808,0,0,1,.506.236.44.44,0,0,0,.53-.7,2.689,2.689,0,0,0-1.036-.438v-.438a.44.44,0,0,0-.88,0v.435a2.26,2.26,0,0,0-.227.055,1.763,1.763,0,0,0-1.209,1.383,1.555,1.555,0,0,0,.509,1.532,4.234,4.234,0,0,0,.926.526V244.9a1.76,1.76,0,0,1-.965-.354.44.44,0,1,0-.482.737,2.6,2.6,0,0,0,1.447.5v.455a.44.44,0,1,0,.88,0v-.5A2.122,2.122,0,0,0,212.729,244,1.862,1.862,0,0,0,211.447,241.871Zm-1.6-.748a.686.686,0,0,1-.187-.676.9.9,0,0,1,.57-.694v1.612A2.634,2.634,0,0,1,209.847,241.123Zm2.013,2.732a1.262,1.262,0,0,1-.749.954v-2.124l.042.015A1,1,0,0,1,211.86,243.855Z" transform="translate(-202.125 -227.494)" fill="#fff"/>
      <path id="XMLID_1343_" d="M246.425,148.849a.44.44,0,1,0-.311-.129A.444.444,0,0,0,246.425,148.849Z" transform="translate(-237.879 -141.455)" fill="#50bd00"/>
    </g>
  </g>
</svg>
