<svg xmlns="http://www.w3.org/2000/svg" width="20.783" height="20.783" viewBox="0 0 20.783 20.783">
  <path id="globe" d="M17.738,3.045a10.389,10.389,0,1,0,0,14.692A10.383,10.383,0,0,0,17.738,3.045ZM17.3,16.256a10.413,10.413,0,0,0-1.552-1.149,16.8,16.8,0,0,0,.627-4.054h3.054A8.983,8.983,0,0,1,17.3,16.256ZM1.35,11.053H4.4a16.8,16.8,0,0,0,.627,4.054,10.414,10.414,0,0,0-1.552,1.149A8.983,8.983,0,0,1,1.35,11.053ZM3.48,4.526A10.414,10.414,0,0,0,5.031,5.675,16.8,16.8,0,0,0,4.4,9.729H1.35A8.983,8.983,0,0,1,3.48,4.526Zm6.25,1.286A8.995,8.995,0,0,1,6.643,5.03C7.2,3.584,8.24,1.851,9.729,1.421Zm0,1.327V9.729h-4a15.6,15.6,0,0,1,.5-3.433A10.319,10.319,0,0,0,9.729,7.138Zm0,3.915v2.591a10.319,10.319,0,0,0-3.5.842,15.6,15.6,0,0,1-.5-3.433Zm0,3.917v4.391C8.24,18.931,7.2,17.2,6.643,15.752A8.995,8.995,0,0,1,9.729,14.97Zm1.324,0a8.995,8.995,0,0,1,3.086.782c-.561,1.445-1.6,3.179-3.086,3.609Zm0-1.327V11.053h4a15.6,15.6,0,0,1-.5,3.433,10.32,10.32,0,0,0-3.5-.842Zm0-3.915V7.138a10.319,10.319,0,0,0,3.5-.842,15.6,15.6,0,0,1,.5,3.433Zm0-3.917V1.421c1.49.43,2.525,2.163,3.086,3.609A9,9,0,0,1,11.053,5.812Zm2.974-3.73a9.025,9.025,0,0,1,2.347,1.5,9.1,9.1,0,0,1-1.065.808,9.968,9.968,0,0,0-1.282-2.307ZM5.474,4.389a9.1,9.1,0,0,1-1.065-.808,9.025,9.025,0,0,1,2.347-1.5A9.971,9.971,0,0,0,5.474,4.389Zm0,12A9.968,9.968,0,0,0,6.756,18.7a9.025,9.025,0,0,1-2.347-1.5A9.1,9.1,0,0,1,5.474,16.393Zm9.835,0a9.1,9.1,0,0,1,1.065.808,9.025,9.025,0,0,1-2.347,1.5A9.967,9.967,0,0,0,15.309,16.393Zm1.069-6.664a16.8,16.8,0,0,0-.627-4.054A10.416,10.416,0,0,0,17.3,4.526a8.983,8.983,0,0,1,2.129,5.2Z" transform="translate(0 0.001)" fill="#fff"/>
</svg>
