<svg xmlns="http://www.w3.org/2000/svg" xmlns:xlink="http://www.w3.org/1999/xlink" width="157.444" height="157.226" viewBox="0 0 157.444 157.226">
  <defs>
    <linearGradient id="linear-gradient" x1="-2.15" y1="0.643" x2="-2.159" gradientUnits="objectBoundingBox">
      <stop offset="0" stop-color="#f8faff" stop-opacity="0.18"/>
      <stop offset="1" stop-color="#2c99c6"/>
    </linearGradient>
  </defs>
  <g id="Group_2710" data-name="Group 2710" transform="translate(-89 -140.018)">
    <g id="Group_2595" data-name="Group 2595" transform="translate(89 140.018)">
      <g id="Group_2523" data-name="Group 2523" transform="translate(0 0)">
        <g id="Group_2437" data-name="Group 2437" transform="translate(70.808 13.582)">
          <path id="Path_5774" data-name="Path 5774" d="M385.26,66.981c-.647.485-1.482-.093-2.07-.4a4.1,4.1,0,0,0-2.032-.534,2.847,2.847,0,0,0-1.874.732c-.552.514-.874,1.226-1.454,1.714-1.221,1.027-3.055.909-4.5.547a.353.353,0,0,0-.4.147,6.582,6.582,0,0,1-6.6,3.513.43.43,0,0,1-.287-.038l-.259-.008a6.636,6.636,0,0,0-.659-4.185,5.51,5.51,0,0,0-3.668-2.923,5.218,5.218,0,0,0-4.814,1.526,3.586,3.586,0,0,0-1.033,2.544,3.265,3.265,0,0,0,1.086,2.2c1.3,1.187,3.717,1.557,4.761-.161a2.105,2.105,0,0,0,.312-1.188c-.019-.443-.713-.468-.693-.021a1.671,1.671,0,0,1-1.454,1.666,2.966,2.966,0,0,1-2.383-.738,2.556,2.556,0,0,1-.938-1.947,3.148,3.148,0,0,1,1.163-2.186,4.514,4.514,0,0,1,4.318-.89,5.063,5.063,0,0,1,2.923,2.843c1.317,3-.243,6.228-2.6,8.186a11.6,11.6,0,0,1-9.43,2.352,11.749,11.749,0,0,1-8.188-6.238c-.2-.4-.809-.068-.609.332h0a7.476,7.476,0,0,1-6.608,1.636,6.867,6.867,0,0,1-1.745-.663c-.258-.143-.441-.326-.74-.184a7.484,7.484,0,0,1-1.037.433,6.039,6.039,0,0,1-7.293-3.205.3.3,0,0,0-.308-.181.368.368,0,0,0-.595-.274,2.294,2.294,0,0,1-1.97.471,14.538,14.538,0,0,1-1.938-.884,5.131,5.131,0,0,0-2.3-.218,4.994,4.994,0,0,1-2.16-.142c-.556-.215-1.275-.984-.593-1.494a2.89,2.89,0,0,1,2.055-.268c.315.049.674.225.983.067.274-.141.446-.51.655-.73a5.05,5.05,0,0,1,1.486-1.075,5.131,5.131,0,0,1,4.056-.181,1.37,1.37,0,0,0,.626-.476,11.666,11.666,0,0,1,9.076-8.181l.038-.009a9.185,9.185,0,0,0,1.195,2.824,7.211,7.211,0,0,0,7.695,2.726c2.466-.658,4.606-3.295,3.648-5.918a3.54,3.54,0,0,0-3.06-2.4A3.057,3.057,0,0,0,342,57.676c-.111.432.552.637.663.2a2.356,2.356,0,0,1,2.356-1.688,2.819,2.819,0,0,1,2.366,1.774c.978,2.263-.969,4.608-3.1,5.176a6.556,6.556,0,0,1-6.826-2.241,8.467,8.467,0,0,1-1.041-7.378,5.805,5.805,0,0,1,6-3.921c.355.047.436-.39.228-.594a.312.312,0,0,0,.107-.13c1.5-3.181,5.054-5.058,8.433-5.471a9.489,9.489,0,0,1,5.234.764,9.058,9.058,0,0,1,3.669,3.391,16.02,16.02,0,0,1,2.019,5.221.348.348,0,0,0,.647.067.366.366,0,0,0,.153-.071,5.085,5.085,0,0,1,5.573-.587,4.946,4.946,0,0,1,2.5,4.76.293.293,0,0,0,.167.309.371.371,0,0,0,.507.257c1.548-.681,3.193.143,4.438,1.064a5.829,5.829,0,0,1,1.655,1.731,8.631,8.631,0,0,1,.819,2.254.384.384,0,0,0,.494.237.342.342,0,0,0,.092.007,9.639,9.639,0,0,1,5.025,1.06,2.9,2.9,0,0,1,1.5,1.541A1.486,1.486,0,0,1,385.26,66.981Z" transform="translate(-315.63 -42.633)" fill="#ddeaf0"/>
          <path id="Path_5775" data-name="Path 5775" d="M385.71,64.788a2.95,2.95,0,0,0-1.237-1.82,7.971,7.971,0,0,0-2.745-1.223,10.71,10.71,0,0,0-3.179-.343.387.387,0,0,0-.118-.141,8.085,8.085,0,0,0-.833-2.1,6.914,6.914,0,0,0-1.932-1.955,5.328,5.328,0,0,0-4.677-1.154,5.62,5.62,0,0,0-2.932-5.217,5.737,5.737,0,0,0-3.213-.611,5.957,5.957,0,0,0-2.876,1.16c-.779-3.245-2.389-6.548-5.377-8.256-3.334-1.907-7.605-1.4-10.874.389A9.78,9.78,0,0,0,341.47,47.8a.361.361,0,0,0,.034.373,6.47,6.47,0,0,0-6.161,3.756,8.452,8.452,0,0,0-.612,4.957.354.354,0,0,0-.067.006,12.383,12.383,0,0,0-8.4,5.9,11.76,11.76,0,0,0-1.154,2.685,5.824,5.824,0,0,0-4.015.159,5.722,5.722,0,0,0-1.778,1.13q-.176.166-.335.347c-.084.1-.247.4-.357.448s-.4-.075-.529-.1a5.156,5.156,0,0,0-.755-.071,2.766,2.766,0,0,0-2.053.627,1.416,1.416,0,0,0,.088,1.956c1.289,1.412,3.337.424,4.927.8.918.219,1.647.905,2.587,1.07a2.993,2.993,0,0,0,2.224-.508.364.364,0,0,0,.035.118,6.737,6.737,0,0,0,9.145,3.114,8.161,8.161,0,0,0,9.225-.837A12.244,12.244,0,0,0,362,77.068a9.159,9.159,0,0,0,2.932-4.437l0-.013a.343.343,0,0,0,.094.018l.291.008a.332.332,0,0,0,.126-.021.359.359,0,0,0,.161.059,7.259,7.259,0,0,0,7.093-3.624,6.178,6.178,0,0,0,4.266-.337,5.6,5.6,0,0,0,1.7-1.715,2.3,2.3,0,0,1,2.121-.968,8.289,8.289,0,0,1,2.343.927,1.813,1.813,0,0,0,2.043-.326A2.231,2.231,0,0,0,385.71,64.788Zm-1.151,1.481c-.647.485-1.482-.093-2.07-.4a4.1,4.1,0,0,0-2.032-.534,2.847,2.847,0,0,0-1.874.732c-.552.514-.874,1.226-1.454,1.714-1.221,1.027-3.055.909-4.5.547a.353.353,0,0,0-.4.147,6.582,6.582,0,0,1-6.6,3.513.43.43,0,0,1-.287-.038l-.259-.008a6.636,6.636,0,0,0-.659-4.185,5.51,5.51,0,0,0-3.668-2.923,5.218,5.218,0,0,0-4.814,1.526,3.586,3.586,0,0,0-1.033,2.544A3.265,3.265,0,0,0,356,71.1c1.3,1.187,3.717,1.557,4.761-.161a2.105,2.105,0,0,0,.312-1.188c-.019-.443-.713-.468-.693-.021a1.671,1.671,0,0,1-1.454,1.666,2.966,2.966,0,0,1-2.383-.738,2.556,2.556,0,0,1-.938-1.947,3.149,3.149,0,0,1,1.163-2.186,4.514,4.514,0,0,1,4.318-.89,5.062,5.062,0,0,1,2.923,2.843c1.317,3-.243,6.228-2.6,8.186a11.6,11.6,0,0,1-9.43,2.352,11.749,11.749,0,0,1-8.188-6.238c-.2-.4-.809-.068-.609.332h0a7.476,7.476,0,0,1-6.608,1.636,6.866,6.866,0,0,1-1.745-.663c-.258-.143-.441-.326-.74-.184a7.485,7.485,0,0,1-1.037.433,6.039,6.039,0,0,1-7.293-3.205.3.3,0,0,0-.308-.181.368.368,0,0,0-.595-.274,2.294,2.294,0,0,1-1.97.471,14.54,14.54,0,0,1-1.938-.884,5.131,5.131,0,0,0-2.3-.218,4.994,4.994,0,0,1-2.16-.142c-.556-.215-1.275-.984-.593-1.494a2.89,2.89,0,0,1,2.055-.268c.315.049.674.225.983.067.274-.141.446-.51.655-.73a5.05,5.05,0,0,1,1.485-1.075,5.131,5.131,0,0,1,4.056-.181,1.37,1.37,0,0,0,.626-.476,11.666,11.666,0,0,1,9.076-8.181l.039-.009a9.184,9.184,0,0,0,1.194,2.824,7.211,7.211,0,0,0,7.695,2.726c2.466-.658,4.606-3.295,3.648-5.918a3.54,3.54,0,0,0-3.06-2.4,3.057,3.057,0,0,0-3.041,2.177c-.111.432.552.637.663.2a2.356,2.356,0,0,1,2.356-1.688,2.819,2.819,0,0,1,2.366,1.774c.978,2.263-.969,4.608-3.1,5.176a6.556,6.556,0,0,1-6.826-2.241,8.468,8.468,0,0,1-1.041-7.378,5.805,5.805,0,0,1,6-3.921c.355.047.436-.39.228-.594a.312.312,0,0,0,.107-.13c1.5-3.181,5.054-5.058,8.433-5.471a9.489,9.489,0,0,1,5.234.764,9.057,9.057,0,0,1,3.669,3.391,16.021,16.021,0,0,1,2.019,5.221.348.348,0,0,0,.647.067.366.366,0,0,0,.153-.071,5.085,5.085,0,0,1,5.573-.587,4.946,4.946,0,0,1,2.5,4.76.293.293,0,0,0,.167.309.371.371,0,0,0,.507.257c1.548-.681,3.193.143,4.438,1.064a5.829,5.829,0,0,1,1.655,1.731,8.63,8.63,0,0,1,.819,2.254.384.384,0,0,0,.494.237.342.342,0,0,0,.092.007,9.639,9.639,0,0,1,5.025,1.06,2.905,2.905,0,0,1,1.5,1.541A1.486,1.486,0,0,1,384.559,66.27Z" transform="translate(-314.929 -41.921)" fill="#ddeaf0"/>
        </g>
        <ellipse id="XMLID_5_" cx="78.722" cy="35.417" rx="78.722" ry="35.417" transform="translate(0 86.392)" opacity="0.26" fill="url(#linear-gradient)"/>
        <g id="Group_2439" data-name="Group 2439" transform="translate(4.67)">
          <path id="Path_5778" data-name="Path 5778" d="M310.789,381.874c-.373.269-.8.478-1.2.709a23.718,23.718,0,0,1-2.573,1.432,7.587,7.587,0,0,1-2.792.47,6.919,6.919,0,0,1-3.034-.526.17.17,0,0,0-.245.131.176.176,0,0,0-.1.064,8.3,8.3,0,0,1-8.006,2.563,10.879,10.879,0,0,1-2.573-.862.215.215,0,0,0-.233.028.2.2,0,0,0-.162.089,5.831,5.831,0,0,1-3.363,2.233,7.152,7.152,0,0,1-4.362-.364,9.239,9.239,0,0,1-2.261-1.314.172.172,0,0,0-.139-.04.212.212,0,0,0-.215.026,7.458,7.458,0,0,1-4.227,1.493,6.15,6.15,0,0,1-4.216-1.517,11.084,11.084,0,0,1-1.6-1.755,9.68,9.68,0,0,0-1.384-1.79,1.529,1.529,0,0,0-1.006-.371c-.41.009-.8.193-1.206.189-.258,0-.644-.1-.676-.41-.035-.341.4-.577.66-.68a5.312,5.312,0,0,1,2.962-.174,1.683,1.683,0,0,0,.345.08.466.466,0,0,0,.261-.144,3.926,3.926,0,0,1,.583-.389,1.133,1.133,0,0,1,1.244.019.173.173,0,0,0,.13.041,4.29,4.29,0,0,0,1.164,1.365,3.843,3.843,0,0,0,4.9-.118,3.217,3.217,0,0,0,1.085-2.374,2.432,2.432,0,0,0-1.179-2.153,1.971,1.971,0,0,0-2.424.275,1.767,1.767,0,0,0-.092,2.29c.174.2.474-.081.3-.281a1.351,1.351,0,0,1,.073-1.708,1.53,1.53,0,0,1,1.823-.28,2,2,0,0,1,1.088,1.844,2.793,2.793,0,0,1-.889,2.026,3.4,3.4,0,0,1-4.224.3A4.248,4.248,0,0,1,271.291,378a4.086,4.086,0,0,1,1.282-2.359,3.194,3.194,0,0,1,2.588-.775c.141.024.311-.077.261-.244a3.626,3.626,0,0,1,3.406-4.721.215.215,0,0,0,.075-.015.2.2,0,0,0,.3-.224,4.687,4.687,0,0,1,.641-3.516,7.047,7.047,0,0,1,2.1-2.278,6.856,6.856,0,0,1,6.138-.848,6.988,6.988,0,0,1,3.036,2.044.18.18,0,0,0,.149.069.207.207,0,0,0,.024.032l.055.059a.154.154,0,0,0,.065.044l.007,0a.158.158,0,0,0,.171.09,5,5,0,0,1,3.551,1.106,5.537,5.537,0,0,1,1.967,3.378,6.824,6.824,0,0,1-2.967,6.87,5.337,5.337,0,0,1-3.621.772,4.537,4.537,0,0,1-3.12-1.873,4.279,4.279,0,0,1-.587-3.427,3.422,3.422,0,0,1,2.564-2.466,2.677,2.677,0,0,1,3.007,1.526,2.154,2.154,0,0,1-1.352,2.887,1.851,1.851,0,0,1-.847.05c-.26-.043-.271.368-.013.411a2.552,2.552,0,0,0,2.79-2.205,2.951,2.951,0,0,0-2.074-3,3.577,3.577,0,0,0-3.734,1.241,4.3,4.3,0,0,0-.741,3.752,4.607,4.607,0,0,0,2.477,3.028,5.631,5.631,0,0,0,4.1.293,6.917,6.917,0,0,0,4.479-5.231.265.265,0,0,0,.036.014,5.553,5.553,0,0,1,3.271,2,4.191,4.191,0,0,1,.574,3.535c-.342,1.178-1.258,2.475-2.638,2.287a1.861,1.861,0,0,1-1.375-2.685,1.124,1.124,0,0,1,1.563-.464.757.757,0,0,1-.084,1.305c-.243.1-.046.466.2.362a1.165,1.165,0,0,0,.554-1.477,1.352,1.352,0,0,0-1.6-.714,1.791,1.791,0,0,0-1.233,1.495,2.312,2.312,0,0,0,.623,1.922,2.284,2.284,0,0,0,1.97.66,2.661,2.661,0,0,0,1.781-1.228,4.511,4.511,0,0,0,.265-.432l.015,0a8.222,8.222,0,0,1,4.238.353,5.651,5.651,0,0,1,2.8,2.272.209.209,0,0,0,.322.052,5.115,5.115,0,0,1,1.154-.743c.364-.169.894-.337,1.211.013C311.407,381.318,311.057,381.681,310.789,381.874Z" transform="translate(-264.798 -362.225)" fill="#bcd9e6"/>
          <path id="Path_5779" data-name="Path 5779" d="M310.545,379.822c-.761-.771-2.01,0-2.739.577a6.151,6.151,0,0,0-2.849-2.238,8.463,8.463,0,0,0-4.226-.426,4.594,4.594,0,0,0-1.422-5.37,7.271,7.271,0,0,0-2.532-1.142.21.21,0,0,0-.089-.007,7.056,7.056,0,0,0,.082-.949,6.358,6.358,0,0,0-1.377-4.159,5.661,5.661,0,0,0-3.595-2.01,4.763,4.763,0,0,0-1-.02l0,0-.055-.059a.152.152,0,0,0-.065-.044.156.156,0,0,0-.079-.021h0a.21.21,0,0,0-.025-.036,7.313,7.313,0,0,0-11.766.886,5.391,5.391,0,0,0-.912,3.825,4.136,4.136,0,0,0-3.057,1.572,4.094,4.094,0,0,0-.733,3.368,3.6,3.6,0,0,0-2.349.667,4.29,4.29,0,0,0-1.586,2.294,4.958,4.958,0,0,0,.113,3.12,2.28,2.28,0,0,0-1.987.633,6.2,6.2,0,0,0-2.45-.1c-.64.1-1.6.308-1.845,1.014-.233.673.438,1.107,1.029,1.114.411,0,.8-.177,1.206-.189a1.262,1.262,0,0,1,.957.464,7.413,7.413,0,0,1,.663.9c.22.319.448.634.689.939a10.416,10.416,0,0,0,1.643,1.691,6.482,6.482,0,0,0,4.132,1.446,7.9,7.9,0,0,0,4.533-1.522,8.962,8.962,0,0,0,4.414,1.863,6.867,6.867,0,0,0,4.306-.9,5.951,5.951,0,0,0,1.752-1.6,9.642,9.642,0,0,0,9.053-.182,7.684,7.684,0,0,0,1.9-1.624.219.219,0,0,0,.038-.062,7.3,7.3,0,0,0,3.05.5,7.944,7.944,0,0,0,3.141-.581c.517-.236,1-.537,1.493-.823l1.5-.873a3.374,3.374,0,0,0,1.107-.822A.847.847,0,0,0,310.545,379.822Zm-.6,1.182c-.373.269-.8.478-1.2.71a23.72,23.72,0,0,1-2.573,1.432,7.59,7.59,0,0,1-2.792.47,6.922,6.922,0,0,1-3.034-.526.17.17,0,0,0-.245.131.176.176,0,0,0-.1.064,8.3,8.3,0,0,1-8.006,2.563,10.88,10.88,0,0,1-2.573-.862.215.215,0,0,0-.233.028.2.2,0,0,0-.162.089,5.831,5.831,0,0,1-3.363,2.233,7.152,7.152,0,0,1-4.362-.364,9.238,9.238,0,0,1-2.261-1.314.173.173,0,0,0-.139-.04.212.212,0,0,0-.215.027,7.458,7.458,0,0,1-4.227,1.493,6.15,6.15,0,0,1-4.216-1.517,11.081,11.081,0,0,1-1.6-1.755,9.677,9.677,0,0,0-1.384-1.79,1.529,1.529,0,0,0-1.006-.371c-.41.009-.8.193-1.206.189-.258,0-.644-.1-.676-.41-.035-.341.4-.577.66-.68a5.311,5.311,0,0,1,2.962-.174,1.685,1.685,0,0,0,.345.08.466.466,0,0,0,.261-.144,3.928,3.928,0,0,1,.583-.389,1.133,1.133,0,0,1,1.244.019.174.174,0,0,0,.13.042,4.291,4.291,0,0,0,1.164,1.365,3.843,3.843,0,0,0,4.9-.118,3.217,3.217,0,0,0,1.085-2.374,2.432,2.432,0,0,0-1.179-2.153,1.971,1.971,0,0,0-2.424.275,1.768,1.768,0,0,0-.092,2.29c.174.2.474-.081.3-.281a1.35,1.35,0,0,1,.073-1.708,1.53,1.53,0,0,1,1.823-.28,2,2,0,0,1,1.088,1.844,2.793,2.793,0,0,1-.889,2.026,3.4,3.4,0,0,1-4.224.3,4.248,4.248,0,0,1-1.726-4.288,4.086,4.086,0,0,1,1.282-2.359,3.194,3.194,0,0,1,2.588-.775c.141.024.311-.077.261-.244a3.626,3.626,0,0,1,3.406-4.721.215.215,0,0,0,.075-.015.2.2,0,0,0,.3-.225,4.686,4.686,0,0,1,.642-3.516,7.047,7.047,0,0,1,2.1-2.278,6.856,6.856,0,0,1,6.138-.848,6.989,6.989,0,0,1,3.036,2.044.18.18,0,0,0,.149.069.2.2,0,0,0,.024.032l.055.059a.154.154,0,0,0,.065.044l.007,0a.158.158,0,0,0,.171.09,5,5,0,0,1,3.551,1.106,5.537,5.537,0,0,1,1.967,3.378,6.824,6.824,0,0,1-2.967,6.87,5.337,5.337,0,0,1-3.621.773,4.538,4.538,0,0,1-3.12-1.873,4.279,4.279,0,0,1-.587-3.427,3.422,3.422,0,0,1,2.564-2.466,2.677,2.677,0,0,1,3.007,1.526,2.154,2.154,0,0,1-1.352,2.888,1.852,1.852,0,0,1-.847.05c-.26-.043-.271.368-.013.411a2.552,2.552,0,0,0,2.79-2.205,2.951,2.951,0,0,0-2.074-3,3.577,3.577,0,0,0-3.734,1.241,4.3,4.3,0,0,0-.741,3.752,4.607,4.607,0,0,0,2.477,3.028,5.631,5.631,0,0,0,4.1.293,6.917,6.917,0,0,0,4.479-5.231.255.255,0,0,0,.036.014,5.553,5.553,0,0,1,3.271,2,4.19,4.19,0,0,1,.574,3.535c-.342,1.178-1.258,2.475-2.638,2.287a1.861,1.861,0,0,1-1.375-2.685,1.124,1.124,0,0,1,1.563-.464.757.757,0,0,1-.084,1.305c-.243.1-.046.466.2.362a1.165,1.165,0,0,0,.554-1.477,1.352,1.352,0,0,0-1.6-.714,1.791,1.791,0,0,0-1.233,1.495,2.313,2.313,0,0,0,.623,1.922,2.284,2.284,0,0,0,1.97.66,2.661,2.661,0,0,0,1.781-1.228,4.491,4.491,0,0,0,.265-.432l.015,0a8.223,8.223,0,0,1,4.238.353,5.652,5.652,0,0,1,2.8,2.272.209.209,0,0,0,.322.052,5.111,5.111,0,0,1,1.154-.743c.364-.169.894-.337,1.211.013C310.558,380.449,310.208,380.811,309.94,381Z" transform="translate(-263.949 -361.355)" fill="#bcd9e6"/>
        </g>
      </g>
      <g id="Group_2510" data-name="Group 2510" transform="translate(19.241 12.301)">
        <circle id="Ellipse_4223" data-name="Ellipse 4223" cx="39.924" cy="39.924" r="39.924" transform="translate(0 56.461) rotate(-45)" fill="#2c99c6"/>
      </g>
      <g id="Group_2513" data-name="Group 2513" transform="translate(43.161 33.696)" opacity="0.08">
        <g id="Group_2512" data-name="Group 2512">
          <path id="Path_5839" data-name="Path 5839" d="M321.815,351.609A39.93,39.93,0,0,1,270.1,409.768a39.927,39.927,0,1,0,51.719-58.159Z" transform="translate(-270.096 -351.609)"/>
        </g>
      </g>
      <g id="Group_2515" data-name="Group 2515" transform="translate(38.449 31.794)">
        <g id="Group_2514" data-name="Group 2514">
          <path id="Path_5840" data-name="Path 5840" d="M262.568,390.236a37.066,37.066,0,0,1,65.252-25.851,37.069,37.069,0,1,0-59.42,44.06A36.9,36.9,0,0,1,262.568,390.236Z" transform="translate(-259.563 -347.357)" fill="#fff" opacity="0.2"/>
        </g>
      </g>
      <g id="Group_2517" data-name="Group 2517" transform="translate(85.64 90.263) rotate(180)">
        <path id="Path_5841" data-name="Path 5841" d="M1.15.5C.588.218-.245.567.068.951,1.8,3.076,5.7,4.5,10.1,4.38,14.423,4.259,18,2.675,19.406.52c.256-.393-.641-.7-1.148-.4C15.352,1.875,9.082,4.426,1.15.5Z" transform="translate(0 0)" fill="#fff"/>
      </g>
      <g id="Group_2520" data-name="Group 2520" transform="translate(99.667 82.558) rotate(180)">
        <g id="Group_2518" data-name="Group 2518" transform="translate(34.259 0)">
          <path id="Path_5842" data-name="Path 5842" d="M.067,4.992A7.4,7.4,0,0,1,13.722,4.18a1.189,1.189,0,0,1-1.855,1.409c-2.318-2.036-5.9-3.585-9.8.6a1.189,1.189,0,0,1-2-1.2Z" transform="translate(0)" fill="#fff"/>
        </g>
        <g id="Group_2519" data-name="Group 2519" transform="translate(0 1.695)">
          <path id="Path_5843" data-name="Path 5843" d="M.067,4.992A7.4,7.4,0,0,1,13.722,4.18a1.189,1.189,0,0,1-1.855,1.409c-2.318-2.036-5.9-3.585-9.8.6a1.189,1.189,0,0,1-2-1.2Z" transform="translate(0 0)" fill="#fff"/>
        </g>
      </g>
    </g>
  </g>
</svg>
