<svg xmlns="http://www.w3.org/2000/svg" width="23.168" height="21.228" viewBox="0 0 23.168 21.228">
  <g id="hand" transform="translate(0 1.418)">
    <path id="Path_8825" data-name="Path 8825" d="M23.088,234.247a1.718,1.718,0,0,0-1.709-1.206l-.166.007a1.924,1.924,0,0,0-1.285.562l-2.56,2.533a1.8,1.8,0,0,0-1.5-.813H12.255a7.408,7.408,0,0,1-1.975-.262,4.855,4.855,0,0,0-4.523.947,6.54,6.54,0,0,0-1.2,1.3,1.623,1.623,0,0,0-2.094.209L.127,239.943a.454.454,0,0,0,.008.638l1.877,1.851a.454.454,0,0,0,.637-.646L1.092,240.25l2.023-2.1a.717.717,0,0,1,1.015-.017l3.609,3.5a.717.717,0,0,1,.014,1.015l-1.988,2.039-.511-.487a.454.454,0,1,0-.626.657l.836.8a.454.454,0,0,0,.638-.012l2.3-2.361a1.626,1.626,0,0,0,.349-1.727l.81-.094A9.886,9.886,0,0,1,10.7,241.4h5.494c.084,0,.169,0,.253-.011l.526-.044a3.047,3.047,0,0,0,2.069-1.063l3.7-4.356a1.765,1.765,0,0,0,.343-1.675Zm-1.034,1.087-3.7,4.356a2.141,2.141,0,0,1-1.453.747l-.527.044c-.059,0-.119.008-.178.008H10.7a10.815,10.815,0,0,0-1.242.072l-1.312.153-2.9-2.8a5.617,5.617,0,0,1,1.088-1.194,3.931,3.931,0,0,1,3.708-.777,8.311,8.311,0,0,0,2.217.3h3.611a.893.893,0,0,1,.64.272.883.883,0,0,1,.231.444.447.447,0,0,0,.015.122.886.886,0,0,1-.193.606l-.014.018a.884.884,0,0,1-.692.332H12.708a.454.454,0,1,0,0,.908h3.144a1.787,1.787,0,0,0,1.4-.672l.014-.017a1.79,1.79,0,0,0,.394-1.117l2.908-2.878a1.021,1.021,0,0,1,.682-.3l.166-.007a.808.808,0,0,1,.8.568.862.862,0,0,1-.167.818Zm0,0" transform="translate(0 -225.971)" fill="#a0d7ee"/>
    <path id="Path_8826" data-name="Path 8826" d="M66.963,394.566a1.229,1.229,0,1,0,1.229,1.229A1.23,1.23,0,0,0,66.963,394.566Zm0,1.55a.321.321,0,1,1,.321-.321A.322.322,0,0,1,66.963,396.116Zm0,0" transform="translate(-63.355 -381.649)" fill="#a0d7ee"/>
    <path id="Path_8827" data-name="Path 8827" d="M287.845,372.446l-.023.005a.454.454,0,1,0,.207.883l.023-.005a.454.454,0,1,0-.208-.884Zm0,0" transform="translate(-277.065 -360.318)" fill="#a0d7ee"/>
    <path id="Path_8828" data-name="Path 8828" d="M88.121,505.117l-.023.005a.454.454,0,0,0,.208.883l.023-.005a.454.454,0,0,0-.208-.884Zm0,0" transform="translate(-84.571 -488.186)" fill="#a0d7ee"/>
    <path id="Path_8829" data-name="Path 8829" d="M239.022,8.188a4.8,4.8,0,0,0,0-9.606A4.754,4.754,0,0,0,236.059-.4a4.8,4.8,0,0,0,2.963,8.583ZM235.641,1.45a3.919,3.919,0,0,1,.978-1.131,3.856,3.856,0,0,1,2.4-.829,3.893,3.893,0,1,1-3.381,1.96Zm0,0" transform="translate(-225.74 0)" fill="#a0d7ee"/>
    <path id="Path_8830" data-name="Path 8830" d="M323.064,53.105a1.215,1.215,0,0,1-.582.147c-.306,0-.574-.361-.574-.772a.454.454,0,1,0-.908,0,1.655,1.655,0,0,0,1.123,1.629.453.453,0,0,0,.906-.019,1.514,1.514,0,0,0,1.221-1.511A1.7,1.7,0,0,0,322.67,51c-.007,0-.673-.059-.673-.485a.671.671,0,0,1,.673-.673.614.614,0,0,1,.4.2c.058.058.064.064.064.309a.454.454,0,0,0,.908,0,1.171,1.171,0,0,0-.33-.949,1.6,1.6,0,0,0-.684-.41.454.454,0,0,0-.906.026v.03a1.5,1.5,0,0,0-1.033,1.472c0,1.04,1.081,1.391,1.577,1.393.136.011.676.25.676.673a.549.549,0,0,1-.279.525Zm0,0" transform="translate(-309.38 -48.167)" fill="#a0d7ee"/>
  </g>
</svg>
