<svg id="list" xmlns="http://www.w3.org/2000/svg" width="15.138" height="15.138" viewBox="0 0 15.138 15.138">
  <g id="_x34_">
    <path id="Path_8831" data-name="Path 8831" d="M11.353,1.261a2.525,2.525,0,0,1,2.523,2.523v7.569a2.525,2.525,0,0,1-2.523,2.523H3.784a2.525,2.525,0,0,1-2.523-2.523V3.784A2.525,2.525,0,0,1,3.784,1.261Zm0-1.261H3.784A3.784,3.784,0,0,0,0,3.784v7.569a3.784,3.784,0,0,0,3.784,3.784h7.569a3.784,3.784,0,0,0,3.784-3.784V3.784A3.784,3.784,0,0,0,11.353,0Z" fill="#a0d7ee"/>
  </g>
  <g id="_x33_" transform="translate(3.784 6.938)">
    <path id="Path_8832" data-name="Path 8832" d="M12.938,12.261H6.631a.631.631,0,0,1,0-1.261h6.307a.631.631,0,0,1,0,1.261Z" transform="translate(-6 -11)" fill="#a0d7ee"/>
  </g>
  <g id="_x32_" transform="translate(3.784 3.784)">
    <path id="Path_8833" data-name="Path 8833" d="M12.938,7.261H6.631A.631.631,0,0,1,6.631,6h6.307a.631.631,0,0,1,0,1.261Z" transform="translate(-6 -6)" fill="#a0d7ee"/>
  </g>
  <g id="_x31_" transform="translate(3.784 10.092)">
    <path id="Path_8834" data-name="Path 8834" d="M12.938,17.261H6.631a.631.631,0,1,1,0-1.261h6.307a.631.631,0,1,1,0,1.261Z" transform="translate(-6 -16)" fill="#a0d7ee"/>
  </g>
</svg>
