<svg xmlns="http://www.w3.org/2000/svg" width="23.131" height="15.813" viewBox="0 0 23.131 15.813"><defs><style>.a{fill:#2c99c6;}</style></defs><g transform="translate(0 -81)"><g transform="translate(0 81)"><path class="a" d="M21.1,81H2.033A2.033,2.033,0,0,0,0,83.033V94.779a2.033,2.033,0,0,0,2.033,2.033H21.1a2.033,2.033,0,0,0,2.033-2.033V83.033A2.033,2.033,0,0,0,21.1,81ZM19.472,92.629a.678.678,0,0,1-.955-.077l-3.911-4.6-2.7,1.542a.678.678,0,0,1-.672,0l-2.7-1.542-3.911,4.6a.678.678,0,0,1-1.032-.878l3.746-4.4L4,85.371a.678.678,0,1,1,.672-1.177l6.893,3.932,6.893-3.932a.678.678,0,1,1,.672,1.177l-3.327,1.9,3.746,4.4A.678.678,0,0,1,19.472,92.629Z" transform="translate(0 -81)"/></g></g></svg>