<svg xmlns="http://www.w3.org/2000/svg" width="21.287" height="20.906" viewBox="0 0 21.287 20.906">
  <g id="Group_4981" data-name="Group 4981" transform="translate(-989.5 -345)">
    <path id="Path_5920" data-name="Path 5920" d="M16.68,13.667a.562.562,0,0,0-.606.093l-3.128,2.784a.566.566,0,0,0-.184.5l.5,3.518a.56.56,0,0,0,.393.442.533.533,0,0,0,.167.027.607.607,0,0,0,.423-.176,9.377,9.377,0,0,0,2.763-6.674.558.558,0,0,0-.332-.514Z" transform="translate(988.058 343.46)" fill="#2196f3" stroke="#066c97" stroke-width="1"/>
    <path id="Path_5921" data-name="Path 5921" d="M8.865,6.449A9.358,9.358,0,0,0,2.2,9.206l-.027.027a.563.563,0,0,0,.318.955l3.51.5a.484.484,0,0,0,.08.006.56.56,0,0,0,.42-.189L9.284,7.387a.563.563,0,0,0-.42-.938Z" transform="translate(989.272 344.27)" fill="#2196f3" stroke="#066c97" stroke-width="1"/>
    <path id="Path_5922" data-name="Path 5922" d="M11.346,16.406a.612.612,0,0,1-.434-.18L5.778,11.092a.613.613,0,0,1-.024-.842L9.6,5.94A14.993,14.993,0,0,1,20.653.752a.613.613,0,0,1,.6.6,15.007,15.007,0,0,1-5.2,11.06l-4.3,3.839a.6.6,0,0,1-.407.156Z" transform="translate(988.867 344.914)" fill="#2c99c6" stroke="#066c97" stroke-width="1"/>
    <path id="Path_5923" data-name="Path 5923" d="M16.894,8.506a1.878,1.878,0,1,1,1.329-.549A1.872,1.872,0,0,1,16.894,8.506Z" transform="translate(987.802 344.462)" fill="#f8faff"/>
    <path id="Path_5924" data-name="Path 5924" d="M1.023,22.768A.594.594,0,0,1,.455,22c.2-.666,1.236-4.029,2.044-4.837a2.558,2.558,0,0,1,3.533,0,2.5,2.5,0,0,1,0,3.533c-.809.809-4.172,1.845-4.837,2.044a.563.563,0,0,1-.17.026Z" transform="translate(989.07 343.138)" fill="#99d86f"/>
    <path id="Path_5925" data-name="Path 5925" d="M11.084,16.986a.664.664,0,0,1-.47-.2L5.044,11.222a.666.666,0,0,1-.026-.914L9.193,5.633A16.253,16.253,0,0,1,21.183,0a.665.665,0,0,1,.649.649,16.284,16.284,0,0,1-5.64,12l-4.665,4.164a.665.665,0,0,1-.444.169ZM6.429,10.725l4.68,4.68,4.207-3.755A15.087,15.087,0,0,0,20.5,1.339a15.085,15.085,0,0,0-10.3,5.169Z" transform="translate(988.952 344.999)" fill="none"/>
    <path id="Path_5926" data-name="Path 5926" d="M13.588,21.613a.612.612,0,0,1-.2-.031.661.661,0,0,1-.463-.522l-.594-4.148a.665.665,0,1,1,1.317-.189l.388,2.712a9.721,9.721,0,0,0,1.977-5.9.665.665,0,0,1,1.33,0,11.059,11.059,0,0,1-3.259,7.872A.726.726,0,0,1,13.588,21.613Z" transform="translate(988.106 343.544)" fill="none"/>
    <path id="Path_5927" data-name="Path 5927" d="M6.067,11.033a.57.57,0,0,1-.095-.007l-4.148-.594A.665.665,0,0,1,1.452,9.3a11.082,11.082,0,0,1,7.9-3.286.665.665,0,1,1,0,1.33A9.73,9.73,0,0,0,3.444,9.32l2.718.389a.666.666,0,0,1-.094,1.324Z" transform="translate(989.358 344.319)" fill="none"/>
    <path id="Path_5928" data-name="Path 5928" d="M16.851,8.8a2.217,2.217,0,1,1,1.568-.648A2.211,2.211,0,0,1,16.851,8.8Zm1.1-1.118h.009ZM16.851,5.7a.887.887,0,1,0,.626.26.886.886,0,0,0-.626-.26Z" transform="translate(987.845 344.505)" fill="#066c97"/>
  </g>
</svg>
