<svg xmlns="http://www.w3.org/2000/svg" width="18.302" height="20.59" viewBox="0 0 18.302 20.59">
  <path id="Union_2" data-name="Union 2" d="M-4131.563,1247.294a.826.826,0,0,1-.437-.694v-1.823a5.315,5.315,0,0,1,4.636-5.3.425.425,0,0,1,.26.073,7.131,7.131,0,0,0,4.254,1.414,7.132,7.132,0,0,0,4.255-1.414.425.425,0,0,1,.26-.073,5.315,5.315,0,0,1,4.636,5.3v1.823a.827.827,0,0,1-.436.694c-.937.426-3.493,1.3-8.715,1.3S-4130.626,1247.719-4131.563,1247.294Zm3.3-13.764a5.473,5.473,0,0,1,5.416-5.529,5.473,5.473,0,0,1,5.416,5.529,5.473,5.473,0,0,1-5.416,5.529A5.473,5.473,0,0,1-4128.265,1233.529Z" transform="translate(4132 -1228)" fill="#2c99c6"/>
</svg>
