<svg xmlns="http://www.w3.org/2000/svg" width="230.145" height="113.486" viewBox="0 0 230.145 113.486">
  <g id="Group_4991" data-name="Group 4991" transform="translate(-75.171 -169.015)">
    <g id="Group_2597" data-name="Group 2597" transform="translate(-398.342 -395.96)">
      <path id="Path_5903" data-name="Path 5903" d="M619.412,584.778a.477.477,0,0,0,.047-.052c2.524-3.4,5.862-6.984,6.568-11.322.469-2.893-.582-6.44-3.367-7.827-3.324-1.653-7.429.469-10.323,2.121a31.838,31.838,0,0,0-9.546,8.5.584.584,0,0,0-.057.1q-1.378-.426-2.784-.777a56.184,56.184,0,0,0-29.334.668,31.793,31.793,0,0,0-9.219-8.3c-2.945-1.733-7.221-4.015-10.64-2.311-2.765,1.378-3.821,4.891-3.376,7.766.663,4.266,3.892,7.808,6.407,11.161-.18.133-.369.265-.549.4a71.337,71.337,0,0,0-18.4,20.669.479.479,0,0,0,.535.7q1.84-.5,3.679-1c1.3-.355,1.435-.853,1.364.871a22.613,22.613,0,0,0-.118,3.2c.189,1.785,1.255,2.775,2.742,3.628,2.851,1.643,5.933,2.988,8.911,4.375a100.1,100.1,0,0,0,17.1,6.629,69.9,69.9,0,0,0,36.214-.393,80.862,80.862,0,0,0,10.545-3.9.5.5,0,0,0,.6-.266c1.913-.852,3.812-1.738,5.706-2.632,2.178-1.033,4.446-2.022,6.587-3.178a.49.49,0,0,0,.308-.17c.365-.2.724-.408,1.08-.616a4.419,4.419,0,0,0,2.472-3.476c.118-1.207-.445-2.665-.147-3.83a2.852,2.852,0,0,0,.1-.545.311.311,0,0,0,.242.015,4.222,4.222,0,0,1,1.046.289q1.84.5,3.679,1a.478.478,0,0,0,.535-.7A69.535,69.535,0,0,0,619.412,584.778Zm-8.178-15.29c2.746-1.8,7.107-4.5,10.5-3.281,3.977,1.434,3.925,6.6,2.5,9.783-1.349,3.006-3.627,5.615-5.578,8.244-.568-.4-1.136-.8-1.714-1.179l-.218.246c-.4.464-1.07-.208-.672-.668.028-.033.057-.061.085-.09a56.342,56.342,0,0,0-7.964-4.228l-.043.085c-.27.54-1.061.076-.824-.46q-1.79-.731-3.637-1.34A30.718,30.718,0,0,1,611.235,569.488Zm-61.883,6.843c-1.548-3.216-1.837-8.623,2.33-10.124,3.31-1.189,7.491,1.354,10.19,3.078a30.61,30.61,0,0,1,7.78,7.2c-1.132.355-2.249.753-3.357,1.179a.037.037,0,0,1,.009.019.432.432,0,0,1-.241.663.466.466,0,0,1-.573-.185l-.1-.143a53.866,53.866,0,0,0-8.23,4.2l.189.27a.408.408,0,0,1-.147.615.493.493,0,0,1-.668-.137q-.078-.107-.171-.242-.916.6-1.813,1.226A47.825,47.825,0,0,1,549.351,576.33ZM557.917,619q-6.009-2.629-11.876-5.559s-.009,0-.014-.009a.543.543,0,0,0,.076-.156c1.619-6.35,6.179-11.255,11.89-14.281,4.778-2.533,12.179-5.251,17.558-3.187,3.386,1.3,4.669,4.759,3.731,8.135-.928,3.343-3.618,5.6-6.563,7.2-4.929,2.675-10.588,3.76-14.736,7.76A.406.406,0,0,0,557.917,619Zm69.3-5.758q-5.576,2.8-11.279,5.322c-4.11-3.717-9.574-4.844-14.362-7.425-2.822-1.525-5.493-3.7-6.473-6.876-1.07-3.461.095-7.093,3.641-8.457,5.393-2.069,12.761.654,17.558,3.187a22.91,22.91,0,0,1,11.757,13.821C627.784,612.956,627.5,613.093,627.216,613.24Zm5.374-9.29a.48.48,0,0,0-.535.218c-.668,1.306-.5,2.457-.455,3.892.066,2.339-1.084,3.4-2.685,4.3-1.9-6.516-6.8-11.549-12.832-14.547-5.019-2.5-12.543-5.18-18.06-2.751-5.412,2.382-5.18,9.158-1.757,13.178,4.835,5.677,13.192,6,18.723,10.734a71.932,71.932,0,0,1-27.6,6.231,70.173,70.173,0,0,1-28.5-5.781c-.019-.01-.038-.019-.062-.029,5.516-5.137,14.219-5.313,19.191-11.156,3.423-4.02,3.66-10.791-1.757-13.178-5.516-2.429-13.036.251-18.06,2.751-6.231,3.1-11.274,8.363-13.022,15.2-2.031-.985-4-2.007-3.944-4.64.033-1.53.279-2.813-.44-4.214a.48.48,0,0,0-.535-.218l-4.006,1.093a67.294,67.294,0,0,1,21.052-21.762A55.062,55.062,0,0,1,566.2,578.7a52.043,52.043,0,0,1,6.577-2.164,54.845,54.845,0,0,1,46.044,8.949,69.926,69.926,0,0,1,17.766,19.56Z" fill="#19769d"/>
      <path id="Path_5904" data-name="Path 5904" d="M620.479,596.449a54.844,54.844,0,0,0-46.044-8.949,52.059,52.059,0,0,0-6.577,2.164,55.067,55.067,0,0,0-8.888,4.584,67.294,67.294,0,0,0-21.052,21.762l4.006-1.093a.48.48,0,0,1,.535.218c.72,1.4.474,2.684.44,4.214-.052,2.633,1.913,3.655,3.944,4.64,1.747-6.842,6.79-12.107,13.022-15.2,5.024-2.5,12.543-5.18,18.06-2.751,5.417,2.387,5.18,9.158,1.757,13.178-4.972,5.843-13.675,6.019-19.191,11.156.024.009.043.019.062.029a70.172,70.172,0,0,0,28.5,5.781,71.931,71.931,0,0,0,27.6-6.231c-5.531-4.73-13.888-5.057-18.723-10.734-3.423-4.02-3.655-10.8,1.757-13.178,5.516-2.429,13.04.251,18.06,2.751,6.028,3,10.933,8.031,12.832,14.547,1.6-.9,2.751-1.965,2.685-4.3-.043-1.435-.213-2.586.455-3.892a.48.48,0,0,1,.535-.218l4,1.093A69.923,69.923,0,0,0,620.479,596.449Zm-29.6,33.567c-2.784,1.07-4.858-1.387-6.023-3.608-1.013-1.932.952-2.662,2.78-2.86,2.207-.478,5.483-.814,6.639.994C595.554,626.55,592.556,629.377,590.88,630.016Zm4.839-.288a.474.474,0,0,1,0,.947.681.681,0,1,0,0,1.359.474.474,0,0,1,0,.947,1.628,1.628,0,1,1,0-3.253Z" transform="translate(-1.654 -10.966)" fill="#2c99c6"/>
      <path id="Path_5906" data-name="Path 5906" d="M683.909,578.95c1.96-3.964,8.244-9.437,12.993-6.9a4.343,4.343,0,0,1,2.074,5.066c-.715,2.993-3.476,4.806-5.436,6.971.578.384,1.146.776,1.714,1.179,1.951-2.628,4.228-5.237,5.578-8.244,1.43-3.182,1.482-8.349-2.5-9.783-3.4-1.222-7.756,1.482-10.5,3.281a30.718,30.718,0,0,0-7.567,7.112q1.847.612,3.637,1.34S683.9,578.954,683.909,578.95Z" transform="translate(-76.6 -1.028)" fill="#2c99c6"/>
      <path id="Path_5907" data-name="Path 5907" d="M702.971,582.084a4.343,4.343,0,0,0-2.074-5.066c-4.749-2.533-11.033,2.94-12.993,6.9,0,0,0,.014,0,.018-.237.536.554,1,.824.46l.043-.085c1.672-3.291,6.028-7.25,9.991-6.923,4.3.35,3.779,4.9,1.7,7.354-1.146,1.354-2.557,2.462-3.731,3.8-.028.028-.057.056-.085.09-.4.46.27,1.132.672.668l.218-.246C699.5,586.891,702.256,585.077,702.971,582.084Z" transform="translate(-80.595 -6.001)" fill="#414042"/>
      <path id="Path_5908" data-name="Path 5908" d="M701.474,585.858c2.074-2.458,2.6-7-1.7-7.354-3.963-.327-8.32,3.632-9.991,6.923a56.332,56.332,0,0,1,7.964,4.228C698.917,588.32,700.328,587.212,701.474,585.858Z" transform="translate(-81.607 -7.113)" fill="#fff"/>
      <g id="Group_2615" data-name="Group 2615" transform="translate(-7 -7.125)">
        <path id="Path_5905" data-name="Path 5905" d="M699.606,635.483c-8.5-4.488-21.552-9.312-31.107-5.647-6.283,2.417-8.347,8.851-6.451,14.983,1.737,5.63,6.468,9.48,11.468,12.182,8.481,4.571,20.552,2.231,20.552,2.231s1.361-3.62,7.947-6.924c.512-.261,1.007-.5,1.493-.756C700.463,640.721,709.479,640.683,699.606,635.483Zm-27.03,12.105c-5.579,0-7.886-5.067-6.929-9.271h13.867C680.462,642.521,678.146,647.588,672.576,647.588Z" transform="translate(-66.651 -33.467)" fill="#fff"/>
        <path id="Path_5941" data-name="Path 5941" d="M189.4,633.6c-11.35,0-11.37,17.641,0,17.641C200.748,651.246,200.758,633.6,189.4,633.6ZM187,642.2c-3.87,0-3.86-6,0-6S190.858,642.2,187,642.2Z" transform="translate(416.464 -33.52)" fill="#422918"/>
        <circle id="Ellipse_4241" data-name="Ellipse 4241" cx="4" cy="4" r="4" transform="translate(600.342 602.085)" fill="#fff"/>
      </g>
      <path id="Path_5911" data-name="Path 5911" d="M656.378,680.19a1.692,1.692,0,0,0,1.709,1.628.474.474,0,0,0,0-.947.681.681,0,1,1,0-1.359.474.474,0,0,0,0-.947A1.692,1.692,0,0,0,656.378,680.19Z" transform="translate(-64.022 -59.804)" fill="#414042"/>
      <path id="Path_5912" data-name="Path 5912" d="M646.159,666.088c-1.155-1.808-4.432-1.473-6.639-.994-1.828.2-3.793.929-2.78,2.86,1.165,2.221,3.239,4.678,6.023,3.608C644.44,670.923,647.437,668.1,646.159,666.088Z" transform="translate(-53.538 -52.512)" fill="#414042"/>
      <path id="Path_5913" data-name="Path 5913" d="M591.793,637.409c.938-3.376-.346-6.833-3.731-8.135-5.379-2.064-12.78.654-17.558,3.187-5.711,3.026-10.271,7.931-11.89,14.281a.54.54,0,0,1-.076.156s.009,0,.014.009q5.86,2.933,11.876,5.559a.406.406,0,0,1,.066-.1c4.148-4,9.806-5.086,14.736-7.76C588.175,643.006,590.865,640.753,591.793,637.409Zm-11.738-3.348h7.657c.734,2.43-.545,5.55-3.831,5.55S579.32,636.491,580.054,634.062Z" transform="translate(-12.511 -33.469)" fill="#fff"/>
      <path id="Path_5914" data-name="Path 5914" d="M611.411,640.2H607.8a1.363,1.363,0,0,1-2.718,0h-1.331c-.734,2.43.535,5.549,3.826,5.549S612.144,642.625,611.411,640.2Z" transform="translate(-36.21 -39.602)" fill="#422918"/>
      <path id="Path_5915" data-name="Path 5915" d="M608.147,641.459a1.32,1.32,0,0,0,1.359-1.264h-2.718A1.32,1.32,0,0,0,608.147,641.459Z" transform="translate(-37.914 -39.602)" fill="#fff"/>
      <path id="Path_5916" data-name="Path 5916" d="M571.4,583.752c-1.875-2.595-8.537-10.858-2.273-11.985,5.095-.914,9.636,3.049,12.2,6.922,1.108-.426,2.226-.824,3.357-1.179a30.609,30.609,0,0,0-7.78-7.2c-2.7-1.724-6.88-4.266-10.19-3.078-4.167,1.5-3.878,6.908-2.33,10.124a47.825,47.825,0,0,0,5.2,7.619Q570.486,584.346,571.4,583.752Z" transform="translate(-15.04 -1.029)" fill="#2c99c6"/>
      <path id="Path_5917" data-name="Path 5917" d="M572.647,577c-6.265,1.126.4,9.39,2.273,11.984q.092.135.171.242a.493.493,0,0,0,.668.137.408.408,0,0,0,.147-.615l-.189-.27c-1.9-2.647-8.3-10.8-1.714-10.6,4.342.138,7.628,2.95,9.944,6.4l.1.143a.466.466,0,0,0,.573.185.432.432,0,0,0,.241-.663.037.037,0,0,0-.009-.019C582.283,580.047,577.742,576.084,572.647,577Z" transform="translate(-18.556 -6.26)" fill="#414042"/>
      <path id="Path_5918" data-name="Path 5918" d="M575.2,579c-6.587-.2-.189,7.951,1.714,10.6a53.866,53.866,0,0,1,8.23-4.2C582.823,581.951,579.537,579.139,575.2,579Z" transform="translate(-19.749 -7.382)" fill="#fff"/>
    </g>
    <g id="Group_2618" data-name="Group 2618" transform="translate(0 11)">
      <path id="Path_5943" data-name="Path 5943" d="M41.34,358.423c1.693.92,3.6,1.457,5.3,2.323H163.632a11.56,11.56,0,0,0-.293-9.787,9.911,9.911,0,0,0-14.889-2.588,16.428,16.428,0,0,0,4.07-9.809,11.229,11.229,0,0,0-9.782,2.741,18.167,18.167,0,0,0,5.446-13.7c-.324-5.134-3.531-10.1-8.072-11.539a9.411,9.411,0,0,0-11.518,6.161c.342-6.127-3.9-12.174-9.426-13.429s-11.637,2.437-13.579,8.2c-.721-6.987-2.271-15.239-8.242-17.93-5.2-2.341-11.363,1.169-14.408,6.312-2.691,4.545-3.54,10.018-4.12,15.427-.457-3.348-4.5-6.131-7.461-4.379-3.131,1.853-3.42,7.09-1.137,9.961a11.407,11.407,0,0,0-13.173-1.036c-4.133,2.593-6.466,8.127-5.739,13.231a4.322,4.322,0,0,0-6.3-1.828c-2.421,1.792-2.941,5.61-1.983,8.621s3.052,5.4,5.089,7.69c-1.42-1.539-2.907-3.127-4.8-3.836a4.351,4.351,0,0,0-5.356,1.613C36.45,353.552,38.739,357.01,41.34,358.423Z" transform="translate(37.696 -89.245)" fill="#44c788"/>
      <g id="Group_2616" data-name="Group 2616" transform="translate(180.538 209.085)">
        <path id="Path_5944" data-name="Path 5944" d="M145.024,343.485c2.291,1.245,4.973,1.775,6.99,3.421h112.54a11.57,11.57,0,0,0,.241-10.748,9.73,9.73,0,0,0-14.617-2.54,16.13,16.13,0,0,0,4-9.63,11.024,11.024,0,0,0-9.6,2.691,17.833,17.833,0,0,0,5.346-13.445c-.318-5.041-3.467-9.914-7.925-11.328a9.238,9.238,0,0,0-11.308,6.048c.336-6.016-3.831-11.952-9.253-13.184s-11.425,2.392-13.331,8.052c-.709-6.86-2.23-14.962-8.092-17.6-5.1-2.3-11.155,1.148-14.144,6.2-2.642,4.463-3.475,9.836-4.045,15.145-.449-3.286-4.417-6.019-7.324-4.3-3.074,1.819-3.357,6.961-1.116,9.78a11.2,11.2,0,0,0-12.932-1.016c-4.058,2.545-6.349,7.978-5.635,12.989a4.244,4.244,0,0,0-6.188-1.8c-2.376,1.76-2.887,5.508-1.947,8.463s3,5.3,5,7.551a13.25,13.25,0,0,0-4.714-3.767,4.274,4.274,0,0,0-5.259,1.584C140.224,338.7,142.471,342.1,145.024,343.485Z" transform="translate(-141.23 -284.489)" fill="#44c788"/>
        <path id="Path_5945" data-name="Path 5945" d="M199.491,314.6c-.43-1.192-1.093-2.06-2.34-2.17-2.226-.195-4.262,1.8-4.654,4.1a7.214,7.214,0,0,0-2.726-2.345c-1.275-.5-2.39.208-3.4,1.039a5.2,5.2,0,0,0-.585,6.8c.362.459.97-.207.61-.664a5.614,5.614,0,0,1-.7-2.955,3.329,3.329,0,0,1,1.807-2.894c2.109-1.376,3.9.983,5.129,2.678.32.441.867-.107.666-.564a4.055,4.055,0,0,1,2.708-4.1,2.044,2.044,0,0,1,2.715,1.523c.283.789,1.061,2.527.583,3.329a.441.441,0,1,0,.745.474C200.8,317.585,199.936,315.836,199.491,314.6Z" transform="translate(-148.035 -286.779)" fill="#32ab8e"/>
        <path id="Path_5946" data-name="Path 5946" d="M225.343,311.509a3.879,3.879,0,0,0-3.167.845c-.179-2.737-.925-6.323-3.46-6.111-2.165.182-5.246,3.636-3.669,5.984a.441.441,0,0,0,.745-.474c-1.4-2.078,2.869-6.191,4.427-3.687a11.01,11.01,0,0,1,1.142,5.4,3.466,3.466,0,0,0-.274,1.168.417.417,0,0,0,.78.241.431.431,0,0,0,.352-.436c.006-.228.008-.489.006-.777A2.7,2.7,0,0,1,224.5,312.4c.877-.048,3.039.8,1.823,2.053-.4.416.207,1.079.609.663C228.339,313.662,226.866,311.76,225.343,311.509Z" transform="translate(-152.693 -286.272)" fill="#32ab8e"/>
        <path id="Path_5947" data-name="Path 5947" d="M244.585,311.612c-2.2.006-3.9,2.02-4.291,4.258-.1.59.727.843.832.25a4.078,4.078,0,0,1,2.931-3.5,3.147,3.147,0,0,1,3.582,3.068.432.432,0,1,0,.862,0A4.141,4.141,0,0,0,244.585,311.612Z" transform="translate(-156.703 -286.713)" fill="#32ab8e"/>
      </g>
      <g id="Group_2617" data-name="Group 2617" transform="translate(0 -3)">
        <path id="Path_5948" data-name="Path 5948" d="M122.872,355.48h53.481c.059-.043.119-.081.178-.125a14.285,14.285,0,0,0,5.491-8.639c.658-3.6-.475-7.738-3.138-9.7a5.484,5.484,0,0,0-6.348-.033c1.8-3.427,1.3-8.6-1.6-10.969-3.208-2.623-8.179-.837-9.972,3.09a27.153,27.153,0,0,0,1.412-7.086c.1-3.043-.758-6.3-2.835-8.135-3.271-2.894-8.285-1.091-10.933,2.573s-3.531,8.592-4.327,13.3c.5-3.388,1-6.9.259-10.228s-3.075-6.432-6.012-6.572c-3.272-.157-5.87,3.241-7.285,6.695a30.858,30.858,0,0,0-1.415,18.391c-1.219-2.368-2.516-4.829-4.541-6.254s-5-1.4-6.435.793c-1.142,1.754-.955,4.238-.392,6.341a19.485,19.485,0,0,0,4.48,8.19,11.793,11.793,0,0,0-7.2-1.473c-.38.047,3.417,6.92,3.919,7.474A10.8,10.8,0,0,0,122.872,355.48Z" transform="translate(31.371 -80.979)" fill="#32ab8e"/>
        <path id="Path_5949" data-name="Path 5949" d="M159.006,329.584a2.48,2.48,0,0,0-3.651-.251,5.473,5.473,0,0,0-4.1-4.134c-1.86-.286-3.472,1.4-4.11,3.208a2.949,2.949,0,0,0-3.045-.364c-1.983.927-3.071,3.9-1.415,5.6.46.472,1.183-.251.723-.723-1.036-1.062-.37-2.873.671-3.671a2.128,2.128,0,0,1,2.8.247,3.721,3.721,0,0,0,0,.961.389.389,0,0,0,.285.344c0,.022,0,.043-.01.066-.149.64.836.913.986.271a2.584,2.584,0,0,0-.24-1.844c.347-1.8,2.282-3.669,4.011-2.787,1.319.673,2.742,2.342,2.486,3.883-.107.644.877.92.985.272.007-.042.007-.086.013-.128a.4.4,0,0,0,.548-.226,1.311,1.311,0,0,1,2.107-.252,2.583,2.583,0,0,1,.675,1.335c.018.083.225,1.6.056,1.584-.656-.048-.653.974,0,1.022C160.76,334.144,159.647,330.372,159.006,329.584Z" transform="translate(27.525 -83.045)" fill="#44c788"/>
        <path id="Path_5950" data-name="Path 5950" d="M142.226,340.451a3.191,3.191,0,0,0-5.962-.727c-1.629-1.694-5.333.173-3.708,3.042a.511.511,0,0,0,.882-.516c-1.231-2.175,2.209-2.846,2.516-.762.085.574,1.017.43,1-.136a2.168,2.168,0,0,1,4.283-.629A.511.511,0,0,0,142.226,340.451Z" transform="translate(27.525 -82.048)" fill="#44c788"/>
      </g>
    </g>
    <g id="Group_2614" data-name="Group 2614" transform="translate(2985 235.875)">
      <path id="Path_5919" data-name="Path 5919" d="M273.271,258.854l27.771,23.835a6.419,6.419,0,0,1-8.362,9.743,6.944,6.944,0,0,1-.69-.69L268.155,263.97a3.628,3.628,0,0,1,5.116-5.116Z" transform="translate(-3027.461 -272.535)" fill="#434343"/>
      <path id="Path_5921" data-name="Path 5921" d="M249.062,247.508l6.057,6.023a1.837,1.837,0,0,0,2.59,0l5.079-5.079a1.837,1.837,0,0,0,0-2.59l-6.057-6.023a1.837,1.837,0,0,0-2.59,0l-5.079,5.079A1.837,1.837,0,0,0,249.062,247.508Z" transform="translate(-3012.673 -257.808)" fill="#61dca5"/>
      <path id="Path_5922" data-name="Path 5922" d="M261.358,244.448l-3.171-3.154a1.837,1.837,0,0,0-2.59,0l-5.079,5.079a1.837,1.837,0,0,0,0,2.59l3.167,3.15a18.707,18.707,0,0,0,7.673-7.665Z" transform="translate(-3013.822 -258.956)" fill="#61dca5"/>
      <path id="Path_5923" data-name="Path 5923" d="M257.645,240.736l-3.171-3.154a1.837,1.837,0,0,0-2.59,0l-5.079,5.078a1.837,1.837,0,0,0,0,2.59l3.167,3.15a18.706,18.706,0,0,0,7.673-7.665Z" transform="translate(-3010.893 -256.028)" fill="#706e6e"/>
      <path id="Path_5925" data-name="Path 5925" d="M258.472,247.147a.745.745,0,0,1,1.051,0l1.876,1.874q-.692.835-1.473,1.619t-1.64,1.49l-1.875-1.872a.745.745,0,0,1,0-1.051Z" transform="translate(-3018.72 -263.822)" fill="#706e6e"/>
      <ellipse id="Ellipse_4235" data-name="Ellipse 4235" cx="22.607" cy="22.318" rx="22.607" ry="22.318" transform="translate(-2807.293 -29.71) rotate(-45)" fill="none" stroke="#434343" stroke-width="4"/>
      <ellipse id="Ellipse_4238" data-name="Ellipse 4238" cx="21.302" cy="20.886" rx="21.302" ry="20.886" transform="translate(-2805.401 -29.53) rotate(-45)" fill="#ddeaf0" opacity="0.54"/>
      <path id="Path_5926" data-name="Path 5926" d="M142.372,162.926a20.451,20.451,0,0,0,1,6.331A20.478,20.478,0,0,0,172.7,144.981a20.474,20.474,0,0,0-30.324,17.945Z" transform="translate(-2928.957 -181.431)" fill="#e0e5e8" opacity="0.2" style="mix-blend-mode: color-dodge;isolation: isolate"/>
      <ellipse id="Ellipse_4240" data-name="Ellipse 4240" cx="2.956" cy="6.398" rx="2.956" ry="6.398" transform="matrix(0.408, -0.913, 0.913, 0.408, -2776.8, -44.04)" fill="#e0e5e8" opacity="0.62" style="mix-blend-mode: color-dodge;isolation: isolate"/>
    </g>
    <path id="Path_5951" data-name="Path 5951" d="M199.491,314.6c-.43-1.192-1.093-2.06-2.34-2.17-2.226-.195-4.262,1.8-4.654,4.1a7.214,7.214,0,0,0-2.726-2.345c-1.275-.5-2.39.208-3.4,1.039a5.2,5.2,0,0,0-.585,6.8c.362.459.97-.207.61-.664a5.614,5.614,0,0,1-.7-2.955,3.329,3.329,0,0,1,1.807-2.894c2.109-1.376,3.9.983,5.129,2.678.32.441.867-.107.666-.564a4.055,4.055,0,0,1,2.708-4.1,2.044,2.044,0,0,1,2.715,1.523c.283.789,1.061,2.527.583,3.329a.441.441,0,1,0,.745.474C200.8,317.585,199.936,315.836,199.491,314.6Z" transform="translate(-69.497 -78.695)" fill="#32ab8e"/>
    <path id="Path_5952" data-name="Path 5952" d="M199.491,314.6c-.43-1.192-1.093-2.06-2.34-2.17-2.226-.195-4.262,1.8-4.654,4.1a7.214,7.214,0,0,0-2.726-2.345c-1.275-.5-2.39.208-3.4,1.039a5.2,5.2,0,0,0-.585,6.8c.362.459.97-.207.61-.664a5.614,5.614,0,0,1-.7-2.955,3.329,3.329,0,0,1,1.807-2.894c2.109-1.376,3.9.983,5.129,2.678.32.441.867-.107.666-.564a4.055,4.055,0,0,1,2.708-4.1,2.044,2.044,0,0,1,2.715,1.523c.283.789,1.061,2.527.583,3.329a.441.441,0,1,0,.745.474C200.8,317.585,199.936,315.836,199.491,314.6Z" transform="translate(-43.497 -73.695)" fill="#32ab8e"/>
  </g>
</svg>
