<svg xmlns="http://www.w3.org/2000/svg" width="124" height="124" viewBox="0 0 124 124">
  <g id="Group_4972" data-name="Group 4972" transform="translate(-806 -254)">
    <circle id="Ellipse_4298" data-name="Ellipse 4298" cx="62" cy="62" r="62" transform="translate(806 254)" fill="#d4f3be" opacity="0.44"/>
    <circle id="Ellipse_4299" data-name="Ellipse 4299" cx="41" cy="41" r="41" transform="translate(827 275)" fill="#98e263"/>
    <path id="correct" d="M12.539,25.342a1.671,1.671,0,0,1-2.364,0L.735,15.9a2.507,2.507,0,0,1,0-3.546l1.182-1.182a2.507,2.507,0,0,1,3.546,0l5.894,5.894L27.282,1.141a2.507,2.507,0,0,1,3.546,0L32.01,2.323a2.507,2.507,0,0,1,0,3.546Zm0,0" transform="translate(852 302.594)" fill="#fff"/>
  </g>
</svg>
