<svg xmlns="http://www.w3.org/2000/svg" width="18.804" height="23.191" viewBox="0 0 18.804 23.191">
  <g id="Group_2508" data-name="Group 2508" transform="translate(-57.659 -562.403)">
    <g id="Group_2507" data-name="Group 2507" transform="translate(57.659 562.403)">
      <g id="verified" transform="translate(0 0)">
        <g id="Group_2494" data-name="Group 2494" transform="translate(0 0)">
          <path id="Path_5831" data-name="Path 5831" d="M80.91,40.189A11.516,11.516,0,0,1,74,37.9a11.587,11.587,0,0,1-9.4,2.025l.822,11.135a9.634,9.634,0,0,0,4.469,7.44L74,61.087,78.119,58.5a9.634,9.634,0,0,0,4.493-7.48l.789-11.1a11.607,11.607,0,0,1-2.49.27Z" transform="translate(-64.597 -37.896)" fill="#78d090"/>
        </g>
        <g id="Group_2495" data-name="Group 2495" transform="translate(5.844 2.065)">
          <path id="Path_5832" data-name="Path 5832" d="M185.293,76.333a11.771,11.771,0,0,1-1.475-.093l-.628,8.77a9.546,9.546,0,0,1-4.493,7.42l-3.873,2.409,3.554,2.224L182.5,94.5a9.546,9.546,0,0,0,4.493-7.42l.789-11.014A11.7,11.7,0,0,1,185.293,76.333Z" transform="translate(-174.824 -76.066)" fill="#6ec186"/>
        </g>
        <g id="Group_2506" data-name="Group 2506" transform="translate(6.312 7.409)">
          <g id="Group_2505" data-name="Group 2505" transform="translate(0)">
            <path id="Path_5838" data-name="Path 5838" d="M353.927,291.433a.409.409,0,0,1-.28-.111l-1.864-1.754a.409.409,0,0,1,.561-.6l1.552,1.46,4.006-4.655a.409.409,0,0,1,.62.534l-4.285,4.979a.409.409,0,0,1-.289.142Z" transform="translate(-351.655 -285.635)" fill="#fff" stroke="#fff" stroke-width="1"/>
          </g>
        </g>
      </g>
    </g>
  </g>
</svg>
