<svg xmlns="http://www.w3.org/2000/svg" width="31.049" height="38.293" viewBox="0 0 31.049 38.293">
  <g id="Group_2508" data-name="Group 2508" transform="translate(-57.659 -562.403)">
    <g id="Group_2507" data-name="Group 2507" transform="translate(-3180 747.397)">
      <g id="verified" transform="translate(3237.659 -184.994)">
        <g id="Group_2494" data-name="Group 2494" transform="translate(0 0)">
          <path id="Path_5831" data-name="Path 5831" d="M91.534,41.683A19.015,19.015,0,0,1,80.116,37.9,19.132,19.132,0,0,1,64.6,41.24l1.357,18.386a15.908,15.908,0,0,0,7.379,12.285l6.783,4.278,6.808-4.268A15.908,15.908,0,0,0,94.343,59.57l1.3-18.332a19.166,19.166,0,0,1-4.112.445Z" transform="translate(-64.597 -37.896)" fill="#fff"/>
        </g>
        <g id="Group_2495" data-name="Group 2495" transform="translate(9.65 3.41)">
          <path id="Path_5832" data-name="Path 5832" d="M192.111,76.508a19.437,19.437,0,0,1-2.435-.153l-1.038,14.482a15.762,15.762,0,0,1-7.419,12.253l-6.4,3.977,5.869,3.672L187.5,106.5a15.763,15.763,0,0,0,7.419-12.253l1.3-18.186a19.316,19.316,0,0,1-4.112.442Z" transform="translate(-174.824 -76.066)" fill="#f5f5f5"/>
        </g>
        <g id="Group_2506" data-name="Group 2506" transform="translate(10.423 12.233)">
          <g id="Group_2505" data-name="Group 2505" transform="translate(0)">
            <path id="Path_5838" data-name="Path 5838" d="M355.407,295.208a.675.675,0,0,1-.463-.183l-3.077-2.9a.675.675,0,1,1,.926-.984l2.563,2.412,6.615-7.687a.675.675,0,1,1,1.024.881l-7.075,8.222a.676.676,0,0,1-.476.234Z" transform="translate(-351.655 -285.635)" fill="#21d17f" stroke="#21d17f" stroke-width="1"/>
          </g>
        </g>
      </g>
    </g>
  </g>
</svg>
